<?xml version="1.0" encoding="UTF-8"?>
<svg xmlns="http://www.w3.org/2000/svg" xmlns:xlink="http://www.w3.org/1999/xlink" width="360pt" height="252pt" viewBox="0 0 360 252" version="1.1" id="Fig:dig"><defs><g><symbol overflow="visible" id="dig-glyph0-0"><path style="stroke:none;" d=""/></symbol><symbol overflow="visible" id="dig-glyph0-1"><path style="stroke:none;" d="M 3.421875 -4.3125 L 6 -4.3125 C 6.96875 -4.3125 7.375 -3.921875 7.375 -3.015625 C 7.375 -2.921875 7.375 -2.765625 7.359375 -2.578125 C 7.34375 -2.296875 7.34375 -2.03125 7.34375 -1.859375 C 7.34375 -0.84375 7.40625 -0.515625 7.6875 0 L 10.09375 0 L 10.09375 -0.40625 C 9.75 -0.59375 9.609375 -0.8125 9.609375 -1.296875 C 9.5625 -4.5 9.5 -4.65625 8.109375 -5.25 C 9.328125 -5.71875 9.9375 -6.609375 9.9375 -7.9375 C 9.9375 -8.796875 9.640625 -9.578125 9.125 -10.125 C 8.625 -10.625 7.9375 -10.859375 7.015625 -10.859375 L 1.1875 -10.859375 L 1.1875 0 L 3.421875 0 L 3.421875 -4.3125 Z M 3.421875 -6.171875 L 3.421875 -9 L 6.125 -9 C 6.765625 -9 7.03125 -8.9375 7.296875 -8.71875 C 7.578125 -8.5 7.703125 -8.125 7.703125 -7.609375 C 7.703125 -7.09375 7.5625 -6.671875 7.296875 -6.453125 C 7.0625 -6.25 6.765625 -6.171875 6.125 -6.171875 L 3.421875 -6.171875 Z M 3.421875 -6.171875 "/></symbol><symbol overflow="visible" id="dig-glyph0-2"><path style="stroke:none;" d="M 7.609375 0 L 9.859375 0 L 9.859375 -10.859375 L 7.609375 -10.859375 L 7.609375 -3.46875 L 3.3125 -10.859375 L 1.015625 -10.859375 L 1.015625 0 L 3.25 0 L 3.25 -7.515625 L 7.609375 0 Z M 7.609375 0 "/></symbol><symbol overflow="visible" id="dig-glyph0-3"><path style="stroke:none;" d="M 7.46875 -2.1875 L 8.1875 0 L 10.484375 0 L 6.71875 -10.859375 L 4.25 -10.859375 L 0.390625 0 L 2.671875 0 L 3.40625 -2.1875 L 7.46875 -2.1875 Z M 6.859375 -4.046875 L 4.03125 -4.046875 L 5.4375 -8.296875 L 6.859375 -4.046875 Z M 6.859375 -4.046875 "/></symbol><symbol overflow="visible" id="dig-glyph0-4"><path style="stroke:none;" d=""/></symbol><symbol overflow="visible" id="dig-glyph0-5"><path style="stroke:none;" d="M 6.03125 0 L 8.125 0 L 8.125 -10.859375 L 6.03125 -10.859375 L 6.03125 -7 C 5.515625 -7.8125 4.8125 -8.1875 3.8125 -8.1875 C 1.890625 -8.1875 0.4375 -6.328125 0.4375 -3.90625 C 0.4375 -2.8125 0.765625 -1.71875 1.296875 -0.9375 C 1.84375 -0.15625 2.828125 0.34375 3.8125 0.34375 C 4.8125 0.34375 5.515625 -0.03125 6.03125 -0.8125 L 6.03125 0 Z M 4.28125 -6.4375 C 5.34375 -6.4375 6.03125 -5.40625 6.03125 -3.875 C 6.03125 -2.421875 5.328125 -1.40625 4.28125 -1.40625 C 3.234375 -1.40625 2.515625 -2.4375 2.515625 -3.90625 C 2.515625 -5.390625 3.234375 -6.4375 4.28125 -6.4375 Z M 4.28125 -6.4375 "/></symbol><symbol overflow="visible" id="dig-glyph0-6"><path style="stroke:none;" d="M 7.8125 -3.375 C 7.828125 -3.546875 7.828125 -3.625 7.828125 -3.71875 C 7.828125 -4.53125 7.703125 -5.28125 7.515625 -5.84375 C 6.96875 -7.296875 5.671875 -8.1875 4.046875 -8.1875 C 1.75 -8.1875 0.328125 -6.515625 0.328125 -3.8125 C 0.328125 -1.234375 1.734375 0.34375 4.015625 0.34375 C 5.8125 0.34375 7.28125 -0.6875 7.734375 -2.265625 L 5.671875 -2.265625 C 5.421875 -1.625 4.84375 -1.25 4.078125 -1.25 C 3.484375 -1.25 3.015625 -1.5 2.71875 -1.953125 C 2.515625 -2.25 2.4375 -2.609375 2.421875 -3.375 L 7.8125 -3.375 Z M 2.4375 -4.75 C 2.578125 -5.984375 3.09375 -6.59375 4.03125 -6.59375 C 4.546875 -6.59375 5.015625 -6.328125 5.328125 -5.921875 C 5.515625 -5.625 5.609375 -5.3125 5.65625 -4.75 L 2.4375 -4.75 Z M 2.4375 -4.75 "/></symbol><symbol overflow="visible" id="dig-glyph0-7"><path style="stroke:none;" d="M 6.078125 -8.046875 L 6.078125 -6.8125 C 5.453125 -7.765625 4.765625 -8.1875 3.84375 -8.1875 C 1.9375 -8.1875 0.5 -6.3125 0.5 -3.828125 C 0.5 -1.328125 1.8125 0.34375 3.796875 0.34375 C 4.734375 0.34375 5.3125 0.0625 6.078125 -0.8125 L 6.078125 0.265625 C 6.078125 1.234375 5.34375 1.90625 4.3125 1.90625 C 3.515625 1.90625 3 1.578125 2.828125 0.96875 L 0.671875 0.96875 C 0.6875 1.59375 0.921875 2.03125 1.453125 2.46875 C 2.109375 3 3 3.25 4.234375 3.25 C 6.65625 3.25 8.0625 2.15625 8.0625 0.265625 L 8.0625 -8.046875 L 6.078125 -8.046875 Z M 4.296875 -6.4375 C 5.34375 -6.4375 6.109375 -5.34375 6.109375 -3.859375 C 6.109375 -2.40625 5.34375 -1.40625 4.265625 -1.40625 C 3.28125 -1.40625 2.59375 -2.40625 2.59375 -3.859375 C 2.59375 -5.375 3.28125 -6.4375 4.296875 -6.4375 Z M 4.296875 -6.4375 "/></symbol><symbol overflow="visible" id="dig-glyph0-8"><path style="stroke:none;" d="M 0.9375 -8.046875 L 0.9375 0 L 3.03125 0 L 3.03125 -4.28125 C 3.03125 -5.5 3.640625 -6.109375 4.859375 -6.109375 C 5.078125 -6.109375 5.234375 -6.09375 5.515625 -6.046875 L 5.515625 -8.171875 C 5.390625 -8.1875 5.328125 -8.1875 5.265625 -8.1875 C 4.3125 -8.1875 3.46875 -7.5625 3.03125 -6.46875 L 3.03125 -8.046875 L 0.9375 -8.046875 Z M 0.9375 -8.046875 "/></symbol><symbol overflow="visible" id="dig-glyph0-9"><path style="stroke:none;" d="M 7.8125 -0.25 C 7.4375 -0.59375 7.328125 -0.8125 7.328125 -1.234375 L 7.328125 -5.703125 C 7.328125 -7.34375 6.21875 -8.1875 4.046875 -8.1875 C 1.859375 -8.1875 0.734375 -7.265625 0.59375 -5.390625 L 2.609375 -5.390625 C 2.71875 -6.234375 3.0625 -6.5 4.078125 -6.5 C 4.890625 -6.5 5.296875 -6.234375 5.296875 -5.6875 C 5.296875 -5.421875 5.15625 -5.1875 4.9375 -5.0625 C 4.65625 -4.921875 4.65625 -4.921875 3.625 -4.75 L 2.78125 -4.609375 C 1.1875 -4.34375 0.421875 -3.515625 0.421875 -2.078125 C 0.421875 -1.390625 0.609375 -0.8125 0.984375 -0.421875 C 1.453125 0.0625 2.140625 0.34375 2.859375 0.34375 C 3.75 0.34375 4.578125 -0.046875 5.3125 -0.8125 C 5.3125 -0.390625 5.34375 -0.234375 5.546875 0 L 7.8125 0 L 7.8125 -0.25 Z M 5.296875 -3.234375 C 5.296875 -2.03125 4.703125 -1.34375 3.640625 -1.34375 C 2.9375 -1.34375 2.5 -1.71875 2.5 -2.3125 C 2.5 -2.9375 2.828125 -3.234375 3.703125 -3.40625 L 4.40625 -3.546875 C 4.96875 -3.65625 5.046875 -3.6875 5.296875 -3.796875 L 5.296875 -3.234375 Z M 5.296875 -3.234375 "/></symbol><symbol overflow="visible" id="dig-glyph0-10"><path style="stroke:none;" d="M 4.484375 -7.890625 L 3.328125 -7.890625 L 3.328125 -10.046875 L 1.234375 -10.046875 L 1.234375 -7.890625 L 0.203125 -7.890625 L 0.203125 -6.5 L 1.234375 -6.5 L 1.234375 -1.546875 C 1.234375 -0.28125 1.90625 0.34375 3.28125 0.34375 C 3.734375 0.34375 4.109375 0.296875 4.484375 0.171875 L 4.484375 -1.28125 C 4.28125 -1.25 4.15625 -1.234375 4.015625 -1.234375 C 3.453125 -1.234375 3.328125 -1.40625 3.328125 -2.109375 L 3.328125 -6.5 L 4.484375 -6.5 L 4.484375 -7.890625 Z M 4.484375 -7.890625 "/></symbol><symbol overflow="visible" id="dig-glyph0-11"><path style="stroke:none;" d="M 3.078125 -8.046875 L 1 -8.046875 L 1 0 L 3.078125 0 L 3.078125 -8.046875 Z M 3.078125 -10.859375 L 1 -10.859375 L 1 -9 L 3.078125 -9 L 3.078125 -10.859375 Z M 3.078125 -10.859375 "/></symbol><symbol overflow="visible" id="dig-glyph0-12"><path style="stroke:none;" d="M 4.484375 -8.1875 C 2.03125 -8.1875 0.515625 -6.5625 0.515625 -3.921875 C 0.515625 -1.265625 2.03125 0.34375 4.5 0.34375 C 6.953125 0.34375 8.484375 -1.28125 8.484375 -3.859375 C 8.484375 -6.59375 7 -8.1875 4.484375 -8.1875 Z M 4.5 -6.5 C 5.65625 -6.5 6.390625 -5.46875 6.390625 -3.890625 C 6.390625 -2.390625 5.625 -1.34375 4.5 -1.34375 C 3.375 -1.34375 2.609375 -2.390625 2.609375 -3.921875 C 2.609375 -5.453125 3.375 -6.5 4.5 -6.5 Z M 4.5 -6.5 "/></symbol><symbol overflow="visible" id="dig-glyph0-13"><path style="stroke:none;" d="M 0.9375 -8.046875 L 0.9375 0 L 3.03125 0 L 3.03125 -4.828125 C 3.03125 -5.78125 3.703125 -6.40625 4.703125 -6.40625 C 5.609375 -6.40625 6.046875 -5.921875 6.046875 -4.96875 L 6.046875 0 L 8.140625 0 L 8.140625 -5.390625 C 8.140625 -7.171875 7.15625 -8.1875 5.4375 -8.1875 C 4.359375 -8.1875 3.625 -7.78125 3.03125 -6.890625 L 3.03125 -8.046875 L 0.9375 -8.046875 Z M 0.9375 -8.046875 "/></symbol><symbol overflow="visible" id="dig-glyph0-14"><path style="stroke:none;" d="M 2.953125 -8.046875 L 0.859375 -8.046875 L 0.859375 3.25 L 2.953125 3.25 L 2.953125 -0.953125 C 3.453125 -0.0625 4.171875 0.359375 5.1875 0.359375 C 7.125 0.359375 8.5625 -1.453125 8.5625 -3.90625 C 8.5625 -5.03125 8.234375 -6.171875 7.6875 -6.921875 C 7.15625 -7.671875 6.15625 -8.1875 5.1875 -8.1875 C 4.171875 -8.1875 3.453125 -7.75 2.953125 -6.859375 L 2.953125 -8.046875 Z M 4.703125 -6.4375 C 5.765625 -6.4375 6.46875 -5.40625 6.46875 -3.875 C 6.46875 -2.421875 5.734375 -1.390625 4.703125 -1.390625 C 3.671875 -1.390625 2.953125 -2.40625 2.953125 -3.90625 C 2.953125 -5.40625 3.671875 -6.4375 4.703125 -6.4375 Z M 4.703125 -6.4375 "/></symbol><symbol overflow="visible" id="dig-glyph0-15"><path style="stroke:none;" d="M 3.078125 -10.859375 L 1 -10.859375 L 1 0 L 3.078125 0 L 3.078125 -10.859375 Z M 3.078125 -10.859375 "/></symbol><symbol overflow="visible" id="dig-glyph1-0"><path style="stroke:none;" d=""/></symbol><symbol overflow="visible" id="dig-glyph1-1"><path style="stroke:none;" d="M 5.953125 -8.859375 L 1.375 -8.859375 L 0.71875 -4.03125 L 1.71875 -4.03125 C 2.234375 -4.65625 2.65625 -4.859375 3.34375 -4.859375 C 4.53125 -4.859375 5.28125 -4.046875 5.28125 -2.734375 C 5.28125 -1.46875 4.546875 -0.6875 3.34375 -0.6875 C 2.390625 -0.6875 1.796875 -1.171875 1.53125 -2.171875 L 0.4375 -2.171875 C 0.59375 -1.453125 0.71875 -1.09375 0.96875 -0.78125 C 1.46875 -0.09375 2.375 0.28125 3.375 0.28125 C 5.15625 0.28125 6.40625 -1.015625 6.40625 -2.890625 C 6.40625 -4.640625 5.25 -5.84375 3.546875 -5.84375 C 2.921875 -5.84375 2.421875 -5.671875 1.90625 -5.296875 L 2.265625 -7.78125 L 5.953125 -7.78125 L 5.953125 -8.859375 Z M 5.953125 -8.859375 "/></symbol><symbol overflow="visible" id="dig-glyph1-2"><path style="stroke:none;" d="M 0.59375 -8.859375 L 0.59375 -7.46875 L 0.9375 -5.796875 L 1.4375 -5.796875 L 1.78125 -7.46875 L 1.78125 -8.859375 L 0.59375 -8.859375 Z M 0.59375 -8.859375 "/></symbol><symbol overflow="visible" id="dig-glyph1-3"><path style="stroke:none;" d=""/></symbol><symbol overflow="visible" id="dig-glyph1-4"><path style="stroke:none;" d="M 0.5625 -2.46875 L 6.671875 0.109375 L 6.671875 -0.875 L 1.75 -2.921875 L 6.671875 -4.9375 L 6.671875 -5.921875 L 0.5625 -3.34375 L 0.5625 -2.46875 Z M 0.5625 -2.46875 "/></symbol><symbol overflow="visible" id="dig-glyph1-5"><path style="stroke:none;" d="M 3.546875 -3.90625 L 0.578125 -3.90625 L 0.578125 -3 L 3.546875 -3 L 3.546875 -3.90625 Z M 3.546875 -3.90625 "/></symbol><symbol overflow="visible" id="dig-glyph1-6"><path style="stroke:none;" d="M 6.734375 -3.34375 L 0.625 -5.921875 L 0.625 -4.9375 L 5.546875 -2.890625 L 0.625 -0.875 L 0.625 0.109375 L 6.734375 -2.46875 L 6.734375 -3.34375 Z M 6.734375 -3.34375 "/></symbol><symbol overflow="visible" id="dig-glyph1-7"><path style="stroke:none;" d="M 2.765625 -4.0625 L 2.90625 -4.0625 L 3.359375 -4.078125 C 4.578125 -4.078125 5.203125 -3.53125 5.203125 -2.46875 C 5.203125 -1.34375 4.515625 -0.6875 3.359375 -0.6875 C 2.15625 -0.6875 1.578125 -1.28125 1.5 -2.578125 L 0.40625 -2.578125 C 0.453125 -1.859375 0.578125 -1.40625 0.78125 -1 C 1.234375 -0.15625 2.109375 0.28125 3.328125 0.28125 C 5.15625 0.28125 6.328125 -0.796875 6.328125 -2.46875 C 6.328125 -3.59375 5.890625 -4.21875 4.828125 -4.59375 C 5.65625 -4.90625 6.0625 -5.53125 6.0625 -6.421875 C 6.0625 -7.953125 5.046875 -8.859375 3.359375 -8.859375 C 1.578125 -8.859375 0.625 -7.890625 0.59375 -6 L 1.6875 -6 C 1.703125 -6.53125 1.75 -6.84375 1.890625 -7.109375 C 2.140625 -7.59375 2.6875 -7.90625 3.375 -7.90625 C 4.34375 -7.90625 4.9375 -7.328125 4.9375 -6.390625 C 4.9375 -5.765625 4.71875 -5.390625 4.21875 -5.1875 C 3.921875 -5.0625 3.53125 -5.015625 2.765625 -5 L 2.765625 -4.0625 Z M 2.765625 -4.0625 "/></symbol><symbol overflow="visible" id="dig-glyph1-8"><path style="stroke:none;" d="M 2.296875 -3.859375 L 5.15625 -3.859375 C 5.875 -3.859375 6.4375 -4.078125 6.921875 -4.515625 C 7.46875 -5.015625 7.71875 -5.59375 7.71875 -6.4375 C 7.71875 -8.15625 6.703125 -9.109375 4.90625 -9.109375 L 1.140625 -9.109375 L 1.140625 0 L 2.296875 0 L 2.296875 -3.859375 Z M 2.296875 -4.890625 L 2.296875 -8.09375 L 4.71875 -8.09375 C 5.84375 -8.09375 6.5 -7.484375 6.5 -6.484375 C 6.5 -5.484375 5.84375 -4.890625 4.71875 -4.890625 L 2.296875 -4.890625 Z M 2.296875 -4.890625 "/></symbol><symbol overflow="visible" id="dig-glyph1-9"><path style="stroke:none;" d="M 0.859375 -6.546875 L 0.859375 0 L 1.90625 0 L 1.90625 -3.40625 C 1.90625 -4.34375 2.15625 -4.953125 2.65625 -5.3125 C 2.96875 -5.546875 3.28125 -5.625 4.015625 -5.640625 L 4.015625 -6.703125 C 3.84375 -6.71875 3.75 -6.734375 3.609375 -6.734375 C 2.9375 -6.734375 2.421875 -6.34375 1.828125 -5.359375 L 1.828125 -6.546875 L 0.859375 -6.546875 Z M 0.859375 -6.546875 "/></symbol><symbol overflow="visible" id="dig-glyph1-10"><path style="stroke:none;" d="M 3.40625 -6.734375 C 1.5625 -6.734375 0.453125 -5.421875 0.453125 -3.21875 C 0.453125 -1.03125 1.546875 0.28125 3.40625 0.28125 C 5.25 0.28125 6.375 -1.03125 6.375 -3.171875 C 6.375 -5.4375 5.28125 -6.734375 3.40625 -6.734375 Z M 3.40625 -5.78125 C 4.59375 -5.78125 5.28125 -4.8125 5.28125 -3.1875 C 5.28125 -1.65625 4.5625 -0.671875 3.40625 -0.671875 C 2.25 -0.671875 1.53125 -1.640625 1.53125 -3.21875 C 1.53125 -4.796875 2.25 -5.78125 3.40625 -5.78125 Z M 3.40625 -5.78125 "/></symbol><symbol overflow="visible" id="dig-glyph1-11"><path style="stroke:none;" d="M 0.671875 -9.109375 L 0.671875 0 L 1.609375 0 L 1.609375 -0.84375 C 2.109375 -0.078125 2.78125 0.28125 3.6875 0.28125 C 5.40625 0.28125 6.53125 -1.125 6.53125 -3.296875 C 6.53125 -5.421875 5.46875 -6.734375 3.734375 -6.734375 C 2.84375 -6.734375 2.203125 -6.40625 1.71875 -5.65625 L 1.71875 -9.109375 L 0.671875 -9.109375 Z M 3.53125 -5.765625 C 4.703125 -5.765625 5.453125 -4.75 5.453125 -3.1875 C 5.453125 -1.703125 4.671875 -0.6875 3.53125 -0.6875 C 2.4375 -0.6875 1.71875 -1.6875 1.71875 -3.21875 C 1.71875 -4.765625 2.4375 -5.765625 3.53125 -5.765625 Z M 3.53125 -5.765625 "/></symbol><symbol overflow="visible" id="dig-glyph1-12"><path style="stroke:none;" d="M 6.40625 -2.921875 C 6.40625 -3.921875 6.34375 -4.53125 6.15625 -5.015625 C 5.71875 -6.09375 4.71875 -6.734375 3.5 -6.734375 C 1.671875 -6.734375 0.5 -5.34375 0.5 -3.1875 C 0.5 -1.03125 1.640625 0.28125 3.46875 0.28125 C 4.96875 0.28125 6.015625 -0.5625 6.28125 -1.984375 L 5.21875 -1.984375 C 4.9375 -1.125 4.34375 -0.671875 3.515625 -0.671875 C 2.84375 -0.671875 2.28125 -0.96875 1.9375 -1.53125 C 1.6875 -1.90625 1.59375 -2.28125 1.59375 -2.921875 L 6.40625 -2.921875 Z M 1.609375 -3.78125 C 1.703125 -4.984375 2.4375 -5.78125 3.484375 -5.78125 C 4.515625 -5.78125 5.296875 -4.921875 5.296875 -3.84375 C 5.296875 -3.828125 5.296875 -3.796875 5.28125 -3.78125 L 1.609375 -3.78125 Z M 1.609375 -3.78125 "/></symbol><symbol overflow="visible" id="dig-glyph1-13"><path style="stroke:none;" d="M 8.078125 -9.109375 L 6.96875 -9.109375 L 6.96875 -1.65625 L 2.21875 -9.109375 L 0.953125 -9.109375 L 0.953125 0 L 2.046875 0 L 2.046875 -7.390625 L 6.765625 0 L 8.078125 0 L 8.078125 -9.109375 Z M 8.078125 -9.109375 "/></symbol><symbol overflow="visible" id="dig-glyph1-14"><path style="stroke:none;" d="M 6.03125 0 L 6.03125 -6.546875 L 4.984375 -6.546875 L 4.984375 -2.84375 C 4.984375 -1.5 4.28125 -0.625 3.203125 -0.625 C 2.375 -0.625 1.84375 -1.125 1.84375 -1.90625 L 1.84375 -6.546875 L 0.8125 -6.546875 L 0.8125 -1.5 C 0.8125 -0.40625 1.625 0.28125 2.90625 0.28125 C 3.859375 0.28125 4.46875 -0.046875 5.09375 -0.90625 L 5.09375 0 L 6.03125 0 Z M 6.03125 0 "/></symbol><symbol overflow="visible" id="dig-glyph1-15"><path style="stroke:none;" d="M 0.875 -6.546875 L 0.875 0 L 1.921875 0 L 1.921875 -4.109375 C 1.921875 -5.0625 2.609375 -5.828125 3.46875 -5.828125 C 4.234375 -5.828125 4.671875 -5.34375 4.671875 -4.515625 L 4.671875 0 L 5.71875 0 L 5.71875 -4.109375 C 5.71875 -5.0625 6.40625 -5.828125 7.265625 -5.828125 C 8.03125 -5.828125 8.46875 -5.34375 8.46875 -4.515625 L 8.46875 0 L 9.53125 0 L 9.53125 -4.90625 C 9.53125 -6.09375 8.84375 -6.734375 7.625 -6.734375 C 6.75 -6.734375 6.21875 -6.46875 5.609375 -5.734375 C 5.21875 -6.4375 4.703125 -6.734375 3.84375 -6.734375 C 2.96875 -6.734375 2.40625 -6.40625 1.84375 -5.625 L 1.84375 -6.546875 L 0.875 -6.546875 Z M 0.875 -6.546875 "/></symbol><symbol overflow="visible" id="dig-glyph1-16"><path style="stroke:none;" d="M 3.4375 -8.859375 C 2.609375 -8.859375 1.859375 -8.5 1.40625 -7.890625 C 0.828125 -7.109375 0.53125 -5.921875 0.53125 -4.28125 C 0.53125 -1.296875 1.53125 0.28125 3.4375 0.28125 C 5.3125 0.28125 6.34375 -1.296875 6.34375 -4.21875 C 6.34375 -5.9375 6.0625 -7.09375 5.46875 -7.890625 C 5.015625 -8.515625 4.28125 -8.859375 3.4375 -8.859375 Z M 3.4375 -7.890625 C 4.625 -7.890625 5.21875 -6.6875 5.21875 -4.3125 C 5.21875 -1.796875 4.640625 -0.625 3.40625 -0.625 C 2.25 -0.625 1.65625 -1.84375 1.65625 -4.28125 C 1.65625 -6.703125 2.25 -7.890625 3.4375 -7.890625 Z M 3.4375 -7.890625 "/></symbol><symbol overflow="visible" id="dig-glyph1-17"><path style="stroke:none;" d="M 6.328125 -1.09375 L 1.65625 -1.09375 C 1.78125 -1.8125 2.171875 -2.28125 3.265625 -2.90625 L 4.515625 -3.59375 C 5.75 -4.265625 6.390625 -5.171875 6.390625 -6.265625 C 6.390625 -7 6.09375 -7.6875 5.5625 -8.15625 C 5.03125 -8.640625 4.390625 -8.859375 3.546875 -8.859375 C 2.421875 -8.859375 1.59375 -8.46875 1.09375 -7.71875 C 0.78125 -7.234375 0.65625 -6.6875 0.625 -5.78125 L 1.71875 -5.78125 C 1.765625 -6.390625 1.84375 -6.75 1.984375 -7.03125 C 2.28125 -7.578125 2.84375 -7.90625 3.515625 -7.90625 C 4.515625 -7.90625 5.265625 -7.1875 5.265625 -6.234375 C 5.265625 -5.53125 4.84375 -4.9375 4.0625 -4.484375 L 2.90625 -3.84375 C 1.0625 -2.78125 0.53125 -1.953125 0.421875 0 L 6.328125 0 L 6.328125 -1.09375 Z M 6.328125 -1.09375 "/></symbol><symbol overflow="visible" id="dig-glyph1-18"><path style="stroke:none;" d="M 4.09375 -2.125 L 4.09375 0 L 5.1875 0 L 5.1875 -2.125 L 6.5 -2.125 L 6.5 -3.109375 L 5.1875 -3.109375 L 5.1875 -8.859375 L 4.375 -8.859375 L 0.34375 -3.28125 L 0.34375 -2.125 L 4.09375 -2.125 Z M 4.09375 -3.109375 L 1.3125 -3.109375 L 4.09375 -6.984375 L 4.09375 -3.109375 Z M 4.09375 -3.109375 "/></symbol><symbol overflow="visible" id="dig-glyph1-19"><path style="stroke:none;" d="M 6.21875 -6.546875 C 6.015625 -8 5.0625 -8.859375 3.71875 -8.859375 C 2.734375 -8.859375 1.859375 -8.390625 1.34375 -7.59375 C 0.78125 -6.734375 0.53125 -5.65625 0.53125 -4.03125 C 0.53125 -2.546875 0.765625 -1.59375 1.28125 -0.8125 C 1.765625 -0.09375 2.53125 0.28125 3.515625 0.28125 C 5.203125 0.28125 6.40625 -0.96875 6.40625 -2.703125 C 6.40625 -4.34375 5.28125 -5.515625 3.703125 -5.515625 C 2.828125 -5.515625 2.140625 -5.171875 1.65625 -4.53125 C 1.671875 -6.6875 2.375 -7.890625 3.640625 -7.890625 C 4.40625 -7.890625 4.953125 -7.40625 5.125 -6.546875 L 6.21875 -6.546875 Z M 3.5625 -4.53125 C 4.625 -4.53125 5.28125 -3.796875 5.28125 -2.609375 C 5.28125 -1.5 4.53125 -0.6875 3.53125 -0.6875 C 2.5 -0.6875 1.71875 -1.53125 1.71875 -2.671875 C 1.71875 -3.78125 2.46875 -4.53125 3.5625 -4.53125 Z M 3.5625 -4.53125 "/></symbol><symbol overflow="visible" id="dig-glyph1-20"><path style="stroke:none;" d="M 4.890625 -4.65625 C 5.796875 -5.21875 6.09375 -5.65625 6.09375 -6.5 C 6.09375 -7.890625 5.015625 -8.859375 3.4375 -8.859375 C 1.875 -8.859375 0.78125 -7.890625 0.78125 -6.5 C 0.78125 -5.671875 1.078125 -5.21875 1.96875 -4.65625 C 0.96875 -4.171875 0.46875 -3.4375 0.46875 -2.46875 C 0.46875 -0.84375 1.6875 0.28125 3.4375 0.28125 C 5.1875 0.28125 6.40625 -0.84375 6.40625 -2.453125 C 6.40625 -3.4375 5.90625 -4.171875 4.890625 -4.65625 Z M 3.4375 -7.890625 C 4.375 -7.890625 4.96875 -7.34375 4.96875 -6.46875 C 4.96875 -5.65625 4.359375 -5.09375 3.4375 -5.09375 C 2.515625 -5.09375 1.90625 -5.65625 1.90625 -6.484375 C 1.90625 -7.34375 2.515625 -7.890625 3.4375 -7.890625 Z M 3.4375 -4.171875 C 4.53125 -4.171875 5.28125 -3.46875 5.28125 -2.4375 C 5.28125 -1.390625 4.53125 -0.6875 3.40625 -0.6875 C 2.34375 -0.6875 1.59375 -1.40625 1.59375 -2.4375 C 1.59375 -3.46875 2.34375 -4.171875 3.4375 -4.171875 Z M 3.4375 -4.171875 "/></symbol><symbol overflow="visible" id="dig-glyph1-21"><path style="stroke:none;" d="M 3.234375 -6.3125 L 3.234375 0 L 4.34375 0 L 4.34375 -8.859375 L 3.609375 -8.859375 C 3.21875 -7.5 2.96875 -7.3125 1.28125 -7.09375 L 1.28125 -6.3125 L 3.234375 -6.3125 Z M 3.234375 -6.3125 "/></symbol><symbol overflow="visible" id="dig-glyph2-0"><path style="stroke:none;" d=""/></symbol><symbol overflow="visible" id="dig-glyph2-1"><path style="stroke:none;" d="M 0 -5.84375 L -7.640625 -8.40625 L 0 -8.40625 L 0 -9.515625 L -9.109375 -9.515625 L -9.109375 -7.90625 L -1.171875 -5.25 L -9.109375 -2.546875 L -9.109375 -0.9375 L 0 -0.9375 L 0 -2.03125 L -7.640625 -2.03125 L 0 -4.625 L 0 -5.84375 Z M 0 -5.84375 "/></symbol><symbol overflow="visible" id="dig-glyph2-2"><path style="stroke:none;" d="M -2.921875 -6.40625 C -3.921875 -6.40625 -4.53125 -6.34375 -5.015625 -6.15625 C -6.09375 -5.71875 -6.734375 -4.71875 -6.734375 -3.5 C -6.734375 -1.671875 -5.34375 -0.5 -3.1875 -0.5 C -1.03125 -0.5 0.28125 -1.640625 0.28125 -3.46875 C 0.28125 -4.96875 -0.5625 -6.015625 -1.984375 -6.28125 L -1.984375 -5.21875 C -1.125 -4.9375 -0.671875 -4.34375 -0.671875 -3.515625 C -0.671875 -2.84375 -0.96875 -2.28125 -1.53125 -1.9375 C -1.90625 -1.6875 -2.28125 -1.59375 -2.921875 -1.59375 L -2.921875 -6.40625 Z M -3.78125 -1.609375 C -4.984375 -1.703125 -5.78125 -2.4375 -5.78125 -3.484375 C -5.78125 -4.515625 -4.921875 -5.296875 -3.84375 -5.296875 C -3.828125 -5.296875 -3.796875 -5.296875 -3.78125 -5.28125 L -3.78125 -1.609375 Z M -3.78125 -1.609375 "/></symbol><symbol overflow="visible" id="dig-glyph2-3"><path style="stroke:none;" d="M -0.609375 -6.6875 C -0.59375 -6.578125 -0.59375 -6.53125 -0.59375 -6.46875 C -0.59375 -6.09375 -0.78125 -5.90625 -1.09375 -5.90625 L -4.953125 -5.90625 C -6.109375 -5.90625 -6.734375 -5.046875 -6.734375 -3.4375 C -6.734375 -2.484375 -6.46875 -1.703125 -5.96875 -1.265625 C -5.640625 -0.96875 -5.265625 -0.84375 -4.609375 -0.8125 L -4.609375 -1.859375 C -5.40625 -1.953125 -5.78125 -2.421875 -5.78125 -3.40625 C -5.78125 -4.34375 -5.421875 -4.859375 -4.796875 -4.859375 L -4.53125 -4.859375 C -4.09375 -4.859375 -3.90625 -4.59375 -3.796875 -3.78125 C -3.609375 -2.296875 -3.5625 -2.078125 -3.40625 -1.671875 C -3.09375 -0.90625 -2.5 -0.53125 -1.65625 -0.53125 C -0.46875 -0.53125 0.28125 -1.34375 0.28125 -2.671875 C 0.28125 -3.5 0 -4.15625 -0.671875 -4.90625 C -0.015625 -4.96875 0.28125 -5.296875 0.28125 -5.96875 C 0.28125 -6.1875 0.265625 -6.34375 0.171875 -6.6875 L -0.609375 -6.6875 Z M -2.0625 -4.859375 C -1.71875 -4.859375 -1.5 -4.765625 -1.21875 -4.453125 C -0.828125 -4.03125 -0.625 -3.515625 -0.625 -2.90625 C -0.625 -2.09375 -1.015625 -1.609375 -1.671875 -1.609375 C -2.359375 -1.609375 -2.71875 -2.078125 -2.875 -3.1875 C -3.03125 -4.28125 -3.078125 -4.515625 -3.234375 -4.859375 L -2.0625 -4.859375 Z M -2.0625 -4.859375 "/></symbol><symbol overflow="visible" id="dig-glyph2-4"><path style="stroke:none;" d="M -6.546875 -0.875 L 0 -0.875 L 0 -1.921875 L -3.609375 -1.921875 C -4.953125 -1.921875 -5.828125 -2.625 -5.828125 -3.703125 C -5.828125 -4.53125 -5.328125 -5.046875 -4.53125 -5.046875 L 0 -5.046875 L 0 -6.09375 L -4.953125 -6.09375 C -6.03125 -6.09375 -6.734375 -5.28125 -6.734375 -4.015625 C -6.734375 -3.03125 -6.359375 -2.40625 -5.453125 -1.84375 L -6.546875 -1.84375 L -6.546875 -0.875 Z M -6.546875 -0.875 "/></symbol><symbol overflow="visible" id="dig-glyph2-5"><path style="stroke:none;" d=""/></symbol><symbol overflow="visible" id="dig-glyph2-6"><path style="stroke:none;" d="M -9.109375 -2.421875 L -9.109375 -1.25 L 0 -1.25 L 0 -2.421875 L -9.109375 -2.421875 Z M -9.109375 -2.421875 "/></symbol><symbol overflow="visible" id="dig-glyph2-7"><path style="stroke:none;" d="M -6.546875 -3.171875 L -6.546875 -2.09375 L -8.34375 -2.09375 L -8.34375 -1.0625 L -6.546875 -1.0625 L -6.546875 -0.171875 L -5.703125 -0.171875 L -5.703125 -1.0625 L -0.75 -1.0625 C -0.09375 -1.0625 0.28125 -1.515625 0.28125 -2.328125 C 0.28125 -2.578125 0.265625 -2.828125 0.203125 -3.171875 L -0.671875 -3.171875 C -0.640625 -3.03125 -0.625 -2.875 -0.625 -2.671875 C -0.625 -2.21875 -0.75 -2.09375 -1.21875 -2.09375 L -5.703125 -2.09375 L -5.703125 -3.171875 L -6.546875 -3.171875 Z M -6.546875 -3.171875 "/></symbol><symbol overflow="visible" id="dig-glyph2-8"><path style="stroke:none;" d="M -4.71875 -5.46875 C -6.015625 -5.46875 -6.734375 -4.609375 -6.734375 -3.09375 C -6.734375 -1.578125 -5.953125 -0.59375 -4.734375 -0.59375 C -3.71875 -0.59375 -3.21875 -1.109375 -2.84375 -2.65625 L -2.609375 -3.640625 C -2.4375 -4.359375 -2.171875 -4.65625 -1.703125 -4.65625 C -1.09375 -4.65625 -0.671875 -4.03125 -0.671875 -3.125 C -0.671875 -2.5625 -0.84375 -2.09375 -1.109375 -1.828125 C -1.296875 -1.65625 -1.484375 -1.59375 -1.953125 -1.53125 L -1.953125 -0.421875 C -0.4375 -0.46875 0.28125 -1.328125 0.28125 -3.03125 C 0.28125 -4.6875 -0.53125 -5.734375 -1.78125 -5.734375 C -2.765625 -5.734375 -3.296875 -5.1875 -3.609375 -3.890625 L -3.84375 -2.890625 C -4.046875 -2.03125 -4.328125 -1.671875 -4.78125 -1.671875 C -5.390625 -1.671875 -5.78125 -2.21875 -5.78125 -3.0625 C -5.78125 -3.90625 -5.40625 -4.34375 -4.71875 -4.375 L -4.71875 -5.46875 Z M -4.71875 -5.46875 "/></symbol><symbol overflow="visible" id="dig-glyph2-9"><path style="stroke:none;" d="M -6.546875 -1.875 L -6.546875 -0.84375 L 0 -0.84375 L 0 -1.875 L -6.546875 -1.875 Z M -9.109375 -1.875 L -9.109375 -0.828125 L -7.796875 -0.828125 L -7.796875 -1.875 L -9.109375 -1.875 Z M -9.109375 -1.875 "/></symbol><symbol overflow="visible" id="dig-glyph2-10"><path style="stroke:none;" d="M -6.546875 -4.84375 L -1.453125 -3.03125 L -6.546875 -1.359375 L -6.546875 -0.25 L 0.03125 -2.46875 L 1.0625 -2.0625 C 1.53125 -1.90625 1.703125 -1.65625 1.703125 -1.21875 C 1.703125 -1.078125 1.671875 -0.90625 1.625 -0.671875 L 2.5625 -0.671875 C 2.671875 -0.890625 2.71875 -1.09375 2.71875 -1.375 C 2.71875 -1.71875 2.609375 -2.078125 2.40625 -2.34375 C 2.171875 -2.671875 1.90625 -2.859375 1.375 -3.0625 L -6.546875 -5.96875 L -6.546875 -4.84375 Z M -6.546875 -4.84375 "/></symbol><symbol overflow="visible" id="dig-glyph2-11"><path style="stroke:none;" d="M -1.296875 -2.671875 L -1.296875 -1.375 L 0 -1.375 L 0 -2.671875 L -1.296875 -2.671875 Z M -6.546875 -2.671875 L -6.546875 -1.375 L -5.25 -1.375 L -5.25 -2.671875 L -6.546875 -2.671875 Z M -6.546875 -2.671875 "/></symbol><symbol overflow="visible" id="dig-glyph2-12"><path style="stroke:none;" d="M -9.109375 -0.875 L 0 -0.875 L 0 -1.90625 L -3.609375 -1.90625 C -4.953125 -1.90625 -5.828125 -2.609375 -5.828125 -3.6875 C -5.828125 -4.03125 -5.71875 -4.359375 -5.53125 -4.609375 C -5.3125 -4.90625 -5 -5.03125 -4.53125 -5.03125 L 0 -5.03125 L 0 -6.078125 L -4.953125 -6.078125 C -6.046875 -6.078125 -6.734375 -5.28125 -6.734375 -4.015625 C -6.734375 -3.09375 -6.453125 -2.53125 -5.65625 -1.90625 L -9.109375 -1.90625 L -9.109375 -0.875 Z M -9.109375 -0.875 "/></symbol><symbol overflow="visible" id="dig-glyph2-13"><path style="stroke:none;" d="M -6.546875 -3.21875 L -6.546875 -2.140625 L -7.578125 -2.140625 C -8.015625 -2.140625 -8.234375 -2.390625 -8.234375 -2.859375 C -8.234375 -2.953125 -8.234375 -2.984375 -8.21875 -3.21875 L -9.09375 -3.21875 C -9.140625 -2.984375 -9.15625 -2.84375 -9.15625 -2.640625 C -9.15625 -1.671875 -8.59375 -1.09375 -7.65625 -1.09375 L -6.546875 -1.09375 L -6.546875 -0.21875 L -5.703125 -0.21875 L -5.703125 -1.09375 L 0 -1.09375 L 0 -2.140625 L -5.703125 -2.140625 L -5.703125 -3.21875 L -6.546875 -3.21875 Z M -6.546875 -3.21875 "/></symbol><symbol overflow="visible" id="dig-glyph2-14"><path style="stroke:none;" d="M -9.109375 -6.1875 L -9.109375 -5.15625 L -5.71875 -5.15625 C -6.390625 -4.71875 -6.734375 -4.015625 -6.734375 -3.140625 C -6.734375 -1.4375 -5.375 -0.328125 -3.28125 -0.328125 C -1.078125 -0.328125 0.28125 -1.40625 0.28125 -3.171875 C 0.28125 -4.078125 -0.046875 -4.703125 -0.859375 -5.265625 L 0 -5.265625 L 0 -6.1875 L -9.109375 -6.1875 Z M -5.765625 -3.3125 C -5.765625 -4.4375 -4.765625 -5.15625 -3.203125 -5.15625 C -1.6875 -5.15625 -0.6875 -4.421875 -0.6875 -3.328125 C -0.6875 -2.171875 -1.703125 -1.40625 -3.21875 -1.40625 C -4.75 -1.40625 -5.765625 -2.171875 -5.765625 -3.3125 Z M -5.765625 -3.3125 "/></symbol><symbol overflow="visible" id="dig-glyph2-15"><path style="stroke:none;" d="M -4.34375 -5.890625 C -4.984375 -5.84375 -5.40625 -5.703125 -5.765625 -5.453125 C -6.375 -5 -6.734375 -4.21875 -6.734375 -3.296875 C -6.734375 -1.53125 -5.34375 -0.390625 -3.15625 -0.390625 C -1.046875 -0.390625 0.28125 -1.515625 0.28125 -3.28125 C 0.28125 -4.84375 -0.65625 -5.84375 -2.25 -5.96875 L -2.25 -4.90625 C -1.203125 -4.734375 -0.671875 -4.203125 -0.671875 -3.3125 C -0.671875 -2.15625 -1.609375 -1.46875 -3.15625 -1.46875 C -4.796875 -1.46875 -5.78125 -2.15625 -5.78125 -3.28125 C -5.78125 -4.15625 -5.265625 -4.71875 -4.34375 -4.84375 L -4.34375 -5.890625 Z M -4.34375 -5.890625 "/></symbol><symbol overflow="visible" id="dig-glyph2-16"><path style="stroke:none;" d="M -9.109375 -1.90625 L -9.109375 -0.84375 L 0 -0.84375 L 0 -1.90625 L -9.109375 -1.90625 Z M -9.109375 -1.90625 "/></symbol><symbol overflow="visible" id="dig-glyph2-17"><path style="stroke:none;" d="M -8.859375 -3.4375 C -8.859375 -2.609375 -8.5 -1.859375 -7.890625 -1.40625 C -7.109375 -0.828125 -5.921875 -0.53125 -4.28125 -0.53125 C -1.296875 -0.53125 0.28125 -1.53125 0.28125 -3.4375 C 0.28125 -5.3125 -1.296875 -6.34375 -4.21875 -6.34375 C -5.9375 -6.34375 -7.09375 -6.0625 -7.890625 -5.46875 C -8.515625 -5.015625 -8.859375 -4.28125 -8.859375 -3.4375 Z M -7.890625 -3.4375 C -7.890625 -4.625 -6.6875 -5.21875 -4.3125 -5.21875 C -1.796875 -5.21875 -0.625 -4.640625 -0.625 -3.40625 C -0.625 -2.25 -1.84375 -1.65625 -4.28125 -1.65625 C -6.703125 -1.65625 -7.890625 -2.25 -7.890625 -3.4375 Z M -7.890625 -3.4375 "/></symbol><symbol overflow="visible" id="dig-glyph2-18"><path style="stroke:none;" d="M -1.09375 -6.328125 L -1.09375 -1.65625 C -1.8125 -1.78125 -2.28125 -2.171875 -2.90625 -3.265625 L -3.59375 -4.515625 C -4.265625 -5.75 -5.171875 -6.390625 -6.265625 -6.390625 C -7 -6.390625 -7.6875 -6.09375 -8.15625 -5.5625 C -8.640625 -5.03125 -8.859375 -4.390625 -8.859375 -3.546875 C -8.859375 -2.421875 -8.46875 -1.59375 -7.71875 -1.09375 C -7.234375 -0.78125 -6.6875 -0.65625 -5.78125 -0.625 L -5.78125 -1.71875 C -6.390625 -1.765625 -6.75 -1.84375 -7.03125 -1.984375 C -7.578125 -2.28125 -7.90625 -2.84375 -7.90625 -3.515625 C -7.90625 -4.515625 -7.1875 -5.265625 -6.234375 -5.265625 C -5.53125 -5.265625 -4.9375 -4.84375 -4.484375 -4.0625 L -3.84375 -2.90625 C -2.78125 -1.0625 -1.953125 -0.53125 0 -0.421875 L 0 -6.328125 L -1.09375 -6.328125 Z M -1.09375 -6.328125 "/></symbol><symbol overflow="visible" id="dig-glyph2-19"><path style="stroke:none;" d="M -2.125 -4.09375 L 0 -4.09375 L 0 -5.1875 L -2.125 -5.1875 L -2.125 -6.5 L -3.109375 -6.5 L -3.109375 -5.1875 L -8.859375 -5.1875 L -8.859375 -4.375 L -3.28125 -0.34375 L -2.125 -0.34375 L -2.125 -4.09375 Z M -3.109375 -4.09375 L -3.109375 -1.3125 L -6.984375 -4.09375 L -3.109375 -4.09375 Z M -3.109375 -4.09375 "/></symbol><symbol overflow="visible" id="dig-glyph2-20"><path style="stroke:none;" d="M -6.546875 -6.21875 C -8 -6.015625 -8.859375 -5.0625 -8.859375 -3.71875 C -8.859375 -2.734375 -8.390625 -1.859375 -7.59375 -1.34375 C -6.734375 -0.78125 -5.65625 -0.53125 -4.03125 -0.53125 C -2.546875 -0.53125 -1.59375 -0.765625 -0.8125 -1.28125 C -0.09375 -1.765625 0.28125 -2.53125 0.28125 -3.515625 C 0.28125 -5.203125 -0.96875 -6.40625 -2.703125 -6.40625 C -4.34375 -6.40625 -5.515625 -5.28125 -5.515625 -3.703125 C -5.515625 -2.828125 -5.171875 -2.140625 -4.53125 -1.65625 C -6.6875 -1.671875 -7.890625 -2.375 -7.890625 -3.640625 C -7.890625 -4.40625 -7.40625 -4.953125 -6.546875 -5.125 L -6.546875 -6.21875 Z M -4.53125 -3.5625 C -4.53125 -4.625 -3.796875 -5.28125 -2.609375 -5.28125 C -1.5 -5.28125 -0.6875 -4.53125 -0.6875 -3.53125 C -0.6875 -2.5 -1.53125 -1.71875 -2.671875 -1.71875 C -3.78125 -1.71875 -4.53125 -2.46875 -4.53125 -3.5625 Z M -4.53125 -3.5625 "/></symbol></g><clipPath id="dig-clip1"><path d="M 0 0 L 361 0 L 361 253 L 0 253 Z M 0 0 "/></clipPath><clipPath id="dig-clip2"><path d="M 0 0 L 361 0 L 361 253 L 0 253 Z M 0 0 "/></clipPath><clipPath id="dig-clip3"><path d="M 59.039062 59.039062 L 330.757812 59.039062 L 330.757812 179.558594 L 59.039062 179.558594 Z M 59.039062 59.039062 "/></clipPath></defs><g id="surface0"><g clip-path="url(#dig-clip1)" clip-rule="nonzero"><g style="fill:rgb(0%,0%,0%);fill-opacity:1;"><use xlink:href="#dig-glyph0-1" x="117.796875" y="34.949219"/><use xlink:href="#dig-glyph0-2" x="128.559128" y="34.949219"/><use xlink:href="#dig-glyph0-3" x="139.321381" y="34.949219"/><use xlink:href="#dig-glyph0-4" x="150.083633" y="34.949219"/><use xlink:href="#dig-glyph0-5" x="154.227554" y="34.949219"/><use xlink:href="#dig-glyph0-6" x="163.33522" y="34.949219"/><use xlink:href="#dig-glyph0-7" x="171.623047" y="34.949219"/><use xlink:href="#dig-glyph0-8" x="180.730713" y="34.949219"/><use xlink:href="#dig-glyph0-9" x="186.529205" y="34.949219"/><use xlink:href="#dig-glyph0-5" x="194.817032" y="34.949219"/><use xlink:href="#dig-glyph0-9" x="203.924698" y="34.949219"/><use xlink:href="#dig-glyph0-10" x="212.212524" y="34.949219"/><use xlink:href="#dig-glyph0-11" x="217.176285" y="34.949219"/><use xlink:href="#dig-glyph0-12" x="221.320206" y="34.949219"/><use xlink:href="#dig-glyph0-13" x="230.427872" y="34.949219"/><use xlink:href="#dig-glyph0-4" x="239.535538" y="34.949219"/><use xlink:href="#dig-glyph0-14" x="243.679459" y="34.949219"/><use xlink:href="#dig-glyph0-15" x="252.787125" y="34.949219"/><use xlink:href="#dig-glyph0-12" x="256.931046" y="34.949219"/><use xlink:href="#dig-glyph0-10" x="266.038712" y="34.949219"/></g><g style="fill:rgb(0%,0%,0%);fill-opacity:1;"><use xlink:href="#dig-glyph1-1" x="163.878906" y="220.320312"/><use xlink:href="#dig-glyph1-2" x="170.828934" y="220.320312"/><use xlink:href="#dig-glyph1-3" x="173.216446" y="220.320312"/><use xlink:href="#dig-glyph1-4" x="176.691452" y="220.320312"/><use xlink:href="#dig-glyph1-5" x="183.991486" y="220.320312"/><use xlink:href="#dig-glyph1-5" x="188.154007" y="220.320312"/><use xlink:href="#dig-glyph1-5" x="192.316528" y="220.320312"/><use xlink:href="#dig-glyph1-5" x="196.47905" y="220.320312"/><use xlink:href="#dig-glyph1-5" x="200.641571" y="220.320312"/><use xlink:href="#dig-glyph1-6" x="204.804092" y="220.320312"/><use xlink:href="#dig-glyph1-3" x="212.104126" y="220.320312"/><use xlink:href="#dig-glyph1-7" x="215.579132" y="220.320312"/><use xlink:href="#dig-glyph1-2" x="222.52916" y="220.320312"/></g><g style="fill:rgb(0%,0%,0%);fill-opacity:1;"><use xlink:href="#dig-glyph1-3" x="150.285156" y="234.71875"/><use xlink:href="#dig-glyph1-8" x="153.760162" y="234.71875"/><use xlink:href="#dig-glyph1-9" x="162.097687" y="234.71875"/><use xlink:href="#dig-glyph1-10" x="166.260208" y="234.71875"/><use xlink:href="#dig-glyph1-11" x="173.210236" y="234.71875"/><use xlink:href="#dig-glyph1-12" x="180.160263" y="234.71875"/><use xlink:href="#dig-glyph1-3" x="187.110291" y="234.71875"/><use xlink:href="#dig-glyph1-13" x="190.585297" y="234.71875"/><use xlink:href="#dig-glyph1-14" x="199.610336" y="234.71875"/><use xlink:href="#dig-glyph1-15" x="206.560364" y="234.71875"/><use xlink:href="#dig-glyph1-11" x="216.9729" y="234.71875"/><use xlink:href="#dig-glyph1-12" x="223.922928" y="234.71875"/><use xlink:href="#dig-glyph1-9" x="230.872955" y="234.71875"/><use xlink:href="#dig-glyph1-3" x="235.035477" y="234.71875"/></g><g style="fill:rgb(0%,0%,0%);fill-opacity:1;"><use xlink:href="#dig-glyph2-1" x="14.398438" y="215.03125"/><use xlink:href="#dig-glyph2-2" x="14.398438" y="204.618713"/><use xlink:href="#dig-glyph2-3" x="14.398438" y="197.668686"/><use xlink:href="#dig-glyph2-4" x="14.398438" y="190.718658"/><use xlink:href="#dig-glyph2-5" x="14.398438" y="183.768631"/><use xlink:href="#dig-glyph2-6" x="14.398438" y="180.293625"/><use xlink:href="#dig-glyph2-4" x="14.398438" y="176.818619"/><use xlink:href="#dig-glyph2-7" x="14.398438" y="169.868591"/><use xlink:href="#dig-glyph2-2" x="14.398438" y="166.393585"/><use xlink:href="#dig-glyph2-4" x="14.398438" y="159.443558"/><use xlink:href="#dig-glyph2-8" x="14.398438" y="152.49353"/><use xlink:href="#dig-glyph2-9" x="14.398438" y="146.2435"/><use xlink:href="#dig-glyph2-7" x="14.398438" y="143.468491"/><use xlink:href="#dig-glyph2-10" x="14.398438" y="139.993484"/><use xlink:href="#dig-glyph2-5" x="14.398438" y="133.743454"/><use xlink:href="#dig-glyph2-11" x="14.398438" y="130.268448"/><use xlink:href="#dig-glyph2-5" x="14.398438" y="126.793442"/><use xlink:href="#dig-glyph2-8" x="14.398438" y="123.318436"/><use xlink:href="#dig-glyph2-12" x="14.398438" y="117.068405"/><use xlink:href="#dig-glyph2-9" x="14.398438" y="110.118378"/><use xlink:href="#dig-glyph2-13" x="14.398438" y="107.343369"/><use xlink:href="#dig-glyph2-7" x="14.398438" y="103.868362"/><use xlink:href="#dig-glyph2-2" x="14.398438" y="100.393356"/><use xlink:href="#dig-glyph2-14" x="14.398438" y="93.443329"/><use xlink:href="#dig-glyph2-5" x="14.398438" y="86.493301"/><use xlink:href="#dig-glyph2-3" x="14.398438" y="83.018295"/><use xlink:href="#dig-glyph2-4" x="14.398438" y="76.068268"/><use xlink:href="#dig-glyph2-14" x="14.398438" y="69.11824"/><use xlink:href="#dig-glyph2-5" x="14.398438" y="62.168213"/><use xlink:href="#dig-glyph2-8" x="14.398438" y="58.693207"/><use xlink:href="#dig-glyph2-15" x="14.398438" y="52.443176"/><use xlink:href="#dig-glyph2-3" x="14.398438" y="46.193146"/><use xlink:href="#dig-glyph2-16" x="14.398438" y="39.243118"/><use xlink:href="#dig-glyph2-2" x="14.398438" y="36.468109"/><use xlink:href="#dig-glyph2-14" x="14.398438" y="29.518082"/></g></g><g clip-path="url(#dig-clip2)" clip-rule="nonzero"><path style="fill:none;stroke-width:1;stroke-linecap:round;stroke-linejoin:round;stroke:rgb(0%,0%,0%);stroke-opacity:1;stroke-miterlimit:10;" d="M 89.957031 178.558594 L 298.84375 178.558594 "/><path style="fill:none;stroke-width:1;stroke-linecap:round;stroke-linejoin:round;stroke:rgb(0%,0%,0%);stroke-opacity:1;stroke-miterlimit:10;" d="M 89.957031 178.558594 L 89.957031 185.761719 "/><path style="fill:none;stroke-width:1;stroke-linecap:round;stroke-linejoin:round;stroke:rgb(0%,0%,0%);stroke-opacity:1;stroke-miterlimit:10;" d="M 131.734375 178.558594 L 131.734375 185.761719 "/><path style="fill:none;stroke-width:1;stroke-linecap:round;stroke-linejoin:round;stroke:rgb(0%,0%,0%);stroke-opacity:1;stroke-miterlimit:10;" d="M 173.511719 178.558594 L 173.511719 185.761719 "/><path style="fill:none;stroke-width:1;stroke-linecap:round;stroke-linejoin:round;stroke:rgb(0%,0%,0%);stroke-opacity:1;stroke-miterlimit:10;" d="M 215.289062 178.558594 L 215.289062 185.761719 "/><path style="fill:none;stroke-width:1;stroke-linecap:round;stroke-linejoin:round;stroke:rgb(0%,0%,0%);stroke-opacity:1;stroke-miterlimit:10;" d="M 257.066406 178.558594 L 257.066406 185.761719 "/><path style="fill:none;stroke-width:1;stroke-linecap:round;stroke-linejoin:round;stroke:rgb(0%,0%,0%);stroke-opacity:1;stroke-miterlimit:10;" d="M 298.84375 178.558594 L 298.84375 185.761719 "/><g style="fill:rgb(0%,0%,0%);fill-opacity:1;"><use xlink:href="#dig-glyph1-16" x="86.480469" y="205.921875"/></g><g style="fill:rgb(0%,0%,0%);fill-opacity:1;"><use xlink:href="#dig-glyph1-17" x="128.257812" y="205.921875"/></g><g style="fill:rgb(0%,0%,0%);fill-opacity:1;"><use xlink:href="#dig-glyph1-18" x="170.035156" y="205.921875"/></g><g style="fill:rgb(0%,0%,0%);fill-opacity:1;"><use xlink:href="#dig-glyph1-19" x="211.8125" y="205.921875"/></g><g style="fill:rgb(0%,0%,0%);fill-opacity:1;"><use xlink:href="#dig-glyph1-20" x="253.589844" y="205.921875"/></g><g style="fill:rgb(0%,0%,0%);fill-opacity:1;"><use xlink:href="#dig-glyph1-21" x="291.894531" y="205.921875"/><use xlink:href="#dig-glyph1-16" x="298.844559" y="205.921875"/></g><path style="fill:none;stroke-width:1;stroke-linecap:round;stroke-linejoin:round;stroke:rgb(0%,0%,0%);stroke-opacity:1;stroke-miterlimit:10;" d="M 59.039062 174.132812 L 59.039062 71.960938 "/><path style="fill:none;stroke-width:1;stroke-linecap:round;stroke-linejoin:round;stroke:rgb(0%,0%,0%);stroke-opacity:1;stroke-miterlimit:10;" d="M 59.039062 174.132812 L 51.839844 174.132812 "/><path style="fill:none;stroke-width:1;stroke-linecap:round;stroke-linejoin:round;stroke:rgb(0%,0%,0%);stroke-opacity:1;stroke-miterlimit:10;" d="M 59.039062 157.105469 L 51.839844 157.105469 "/><path style="fill:none;stroke-width:1;stroke-linecap:round;stroke-linejoin:round;stroke:rgb(0%,0%,0%);stroke-opacity:1;stroke-miterlimit:10;" d="M 59.039062 140.074219 L 51.839844 140.074219 "/><path style="fill:none;stroke-width:1;stroke-linecap:round;stroke-linejoin:round;stroke:rgb(0%,0%,0%);stroke-opacity:1;stroke-miterlimit:10;" d="M 59.039062 123.046875 L 51.839844 123.046875 "/><path style="fill:none;stroke-width:1;stroke-linecap:round;stroke-linejoin:round;stroke:rgb(0%,0%,0%);stroke-opacity:1;stroke-miterlimit:10;" d="M 59.039062 106.019531 L 51.839844 106.019531 "/><path style="fill:none;stroke-width:1;stroke-linecap:round;stroke-linejoin:round;stroke:rgb(0%,0%,0%);stroke-opacity:1;stroke-miterlimit:10;" d="M 59.039062 88.988281 L 51.839844 88.988281 "/><path style="fill:none;stroke-width:1;stroke-linecap:round;stroke-linejoin:round;stroke:rgb(0%,0%,0%);stroke-opacity:1;stroke-miterlimit:10;" d="M 59.039062 71.960938 L 51.839844 71.960938 "/><g style="fill:rgb(0%,0%,0%);fill-opacity:1;"><use xlink:href="#dig-glyph2-17" x="43.199219" y="177.609375"/></g><g style="fill:rgb(0%,0%,0%);fill-opacity:1;"><use xlink:href="#dig-glyph2-18" x="43.199219" y="147.023438"/><use xlink:href="#dig-glyph2-17" x="43.199219" y="140.07341"/></g><g style="fill:rgb(0%,0%,0%);fill-opacity:1;"><use xlink:href="#dig-glyph2-19" x="43.199219" y="112.96875"/><use xlink:href="#dig-glyph2-17" x="43.199219" y="106.018723"/></g><g style="fill:rgb(0%,0%,0%);fill-opacity:1;"><use xlink:href="#dig-glyph2-20" x="43.199219" y="78.910156"/><use xlink:href="#dig-glyph2-17" x="43.199219" y="71.960129"/></g></g><g clip-path="url(#dig-clip3)" clip-rule="nonzero"><path d="M 89.957031 172.429688 L 110.84375 160.464844 L 131.734375 149.28125 L 152.621094 142.332031 L 173.511719 133.472656 L 194.398438 126.164062 L 215.289062 117.101562 L 236.179688 108.675781 L 257.066406 99.546875 L 277.957031 93.226562 L 298.84375 90.574219 " class="aqm1" onclick="plotObjRespond('click', 1, 'dig')" onmouseover="plotObjRespond('show', 1, 'dig')" onmouseout="plotObjRespond('hide', 1, 'dig')" fill="none" stroke-width="1" stroke-linecap="round" stroke-linejoin="round" stroke="rgb(12.156863%,47.058824%,70.588235%)" stroke-opacity="1" stroke-miterlimit="10"/><path d="M 89.957031 170.726562 L 110.84375 159.257812 L 131.734375 148.410156 L 152.621094 142.285156 L 173.511719 134.085938 L 194.398438 127.089844 L 215.289062 118.472656 L 236.179688 109.871094 L 257.066406 101.144531 L 277.957031 94.253906 L 298.84375 90.660156 " class="aqm2" onclick="plotObjRespond('click', 2, 'dig')" onmouseover="plotObjRespond('show', 2, 'dig')" onmouseout="plotObjRespond('hide', 2, 'dig')" fill="none" stroke-width="1" stroke-linecap="round" stroke-linejoin="round" stroke="rgb(12.156863%,47.058824%,70.588235%)" stroke-opacity="1" stroke-miterlimit="10"/><path d="M 89.957031 169.023438 L 110.84375 157.832031 L 131.734375 145.972656 L 152.621094 140.136719 L 173.511719 131.101562 L 194.398438 124.304688 L 215.289062 115.898438 L 236.179688 107.601562 L 257.066406 98.828125 L 277.957031 92.726562 L 298.84375 89.761719 " class="aqm3" onclick="plotObjRespond('click', 3, 'dig')" onmouseover="plotObjRespond('show', 3, 'dig')" onmouseout="plotObjRespond('hide', 3, 'dig')" fill="none" stroke-width="1" stroke-linecap="round" stroke-linejoin="round" stroke="rgb(12.156863%,47.058824%,70.588235%)" stroke-opacity="1" stroke-miterlimit="10"/><path d="M 89.957031 167.320312 L 110.84375 156.578125 L 131.734375 145.355469 L 152.621094 138.34375 L 173.511719 129.71875 L 194.398438 122.339844 L 215.289062 113.882812 L 236.179688 105.585938 L 257.066406 97.34375 L 277.957031 91.683594 L 298.84375 90.070312 " class="aqm4" onclick="plotObjRespond('click', 4, 'dig')" onmouseover="plotObjRespond('show', 4, 'dig')" onmouseout="plotObjRespond('hide', 4, 'dig')" fill="none" stroke-width="1" stroke-linecap="round" stroke-linejoin="round" stroke="rgb(12.156863%,47.058824%,70.588235%)" stroke-opacity="1" stroke-miterlimit="10"/><path d="M 89.957031 165.617188 L 110.84375 155.429688 L 131.734375 145.1875 L 152.621094 140.105469 L 173.511719 132.519531 L 194.398438 126.960938 L 215.289062 119.78125 L 236.179688 112.46875 L 257.066406 104.769531 L 277.957031 100.875 L 298.84375 100.5625 " class="aqm5" onclick="plotObjRespond('click', 5, 'dig')" onmouseover="plotObjRespond('show', 5, 'dig')" onmouseout="plotObjRespond('hide', 5, 'dig')" fill="none" stroke-width="1" stroke-linecap="round" stroke-linejoin="round" stroke="rgb(12.156863%,47.058824%,70.588235%)" stroke-opacity="1" stroke-miterlimit="10"/><path d="M 89.957031 163.917969 L 110.84375 151.863281 L 131.734375 140.097656 L 152.621094 132.882812 L 173.511719 123.9375 L 194.398438 116.957031 L 215.289062 107.582031 L 236.179688 98.363281 L 257.066406 88.777344 L 277.957031 80.925781 L 298.84375 77.394531 " class="aqm6" onclick="plotObjRespond('click', 6, 'dig')" onmouseover="plotObjRespond('show', 6, 'dig')" onmouseout="plotObjRespond('hide', 6, 'dig')" fill="none" stroke-width="1" stroke-linecap="round" stroke-linejoin="round" stroke="rgb(12.156863%,47.058824%,70.588235%)" stroke-opacity="1" stroke-miterlimit="10"/><path d="M 89.957031 162.214844 L 110.84375 150.730469 L 131.734375 139.40625 L 152.621094 132.433594 L 173.511719 123.707031 L 194.398438 117.121094 L 215.289062 108.429688 L 236.179688 100.148438 L 257.066406 91.441406 L 277.957031 85.097656 L 298.84375 83.324219 " class="aqm7" onclick="plotObjRespond('click', 7, 'dig')" onmouseover="plotObjRespond('show', 7, 'dig')" onmouseout="plotObjRespond('hide', 7, 'dig')" fill="none" stroke-width="1" stroke-linecap="round" stroke-linejoin="round" stroke="rgb(12.156863%,47.058824%,70.588235%)" stroke-opacity="1" stroke-miterlimit="10"/><path d="M 89.957031 160.511719 L 110.84375 148.585938 L 131.734375 137.667969 L 152.621094 131.652344 L 173.511719 123.058594 L 194.398438 116.335938 L 215.289062 107.890625 L 236.179688 99.0625 L 257.066406 90.820312 L 277.957031 83.515625 L 298.84375 81.402344 " class="aqm8" onclick="plotObjRespond('click', 8, 'dig')" onmouseover="plotObjRespond('show', 8, 'dig')" onmouseout="plotObjRespond('hide', 8, 'dig')" fill="none" stroke-width="1" stroke-linecap="round" stroke-linejoin="round" stroke="rgb(12.156863%,47.058824%,70.588235%)" stroke-opacity="1" stroke-miterlimit="10"/><path d="M 89.957031 158.808594 L 110.84375 147.746094 L 131.734375 135.394531 L 152.621094 129.660156 L 173.511719 120.488281 L 194.398438 113.417969 L 215.289062 104.664062 L 236.179688 96.605469 L 257.066406 87.25 L 277.957031 80.886719 L 298.84375 77.875 " class="aqm9" onclick="plotObjRespond('click', 9, 'dig')" onmouseover="plotObjRespond('show', 9, 'dig')" onmouseout="plotObjRespond('hide', 9, 'dig')" fill="none" stroke-width="1" stroke-linecap="round" stroke-linejoin="round" stroke="rgb(12.156863%,47.058824%,70.588235%)" stroke-opacity="1" stroke-miterlimit="10"/><path d="M 89.957031 157.105469 L 110.84375 145.5 L 131.734375 134.515625 L 152.621094 127.039062 L 173.511719 118.25 L 194.398438 110.882812 L 215.289062 101.921875 L 236.179688 92.988281 L 257.066406 83.660156 L 277.957031 76.75 L 298.84375 73.183594 " class="aqm10" onclick="plotObjRespond('click', 10, 'dig')" onmouseover="plotObjRespond('show', 10, 'dig')" onmouseout="plotObjRespond('hide', 10, 'dig')" fill="none" stroke-width="1" stroke-linecap="round" stroke-linejoin="round" stroke="rgb(12.156863%,47.058824%,70.588235%)" stroke-opacity="1" stroke-miterlimit="10"/><path d="M 89.957031 155.402344 L 110.84375 142.890625 L 131.734375 131.660156 L 152.621094 124.0625 L 173.511719 114.960938 L 194.398438 107.296875 L 215.289062 98.835938 L 236.179688 89.175781 L 257.066406 79.625 L 277.957031 72.105469 L 298.84375 69.011719 " class="aqm11" onclick="plotObjRespond('click', 11, 'dig')" onmouseover="plotObjRespond('show', 11, 'dig')" onmouseout="plotObjRespond('hide', 11, 'dig')" fill="none" stroke-width="1" stroke-linecap="round" stroke-linejoin="round" stroke="rgb(12.156863%,47.058824%,70.588235%)" stroke-opacity="1" stroke-miterlimit="10"/><path d="M 89.957031 153.699219 L 110.84375 141.835938 L 131.734375 130.453125 L 152.621094 123.40625 L 173.511719 115.175781 L 194.398438 107.640625 L 215.289062 99.109375 L 236.179688 90.972656 L 257.066406 83.1875 L 277.957031 76.964844 L 298.84375 76.109375 " class="aqm12" onclick="plotObjRespond('click', 12, 'dig')" onmouseover="plotObjRespond('show', 12, 'dig')" onmouseout="plotObjRespond('hide', 12, 'dig')" fill="none" stroke-width="1" stroke-linecap="round" stroke-linejoin="round" stroke="rgb(12.156863%,47.058824%,70.588235%)" stroke-opacity="1" stroke-miterlimit="10"/><path d="M 89.957031 151.996094 L 110.84375 140.210938 L 131.734375 129.503906 L 152.621094 122.140625 L 173.511719 113.65625 L 194.398438 106.53125 L 215.289062 97.75 L 236.179688 89.125 L 257.066406 80.105469 L 277.957031 73.644531 L 298.84375 70.796875 " class="aqm13" onclick="plotObjRespond('click', 13, 'dig')" onmouseover="plotObjRespond('show', 13, 'dig')" onmouseout="plotObjRespond('hide', 13, 'dig')" fill="none" stroke-width="1" stroke-linecap="round" stroke-linejoin="round" stroke="rgb(12.156863%,47.058824%,70.588235%)" stroke-opacity="1" stroke-miterlimit="10"/><path d="M 89.957031 150.292969 L 110.84375 139.054688 L 131.734375 126.953125 L 152.621094 120.429688 L 173.511719 111.828125 L 194.398438 104.941406 L 215.289062 95.84375 L 236.179688 87.511719 L 257.066406 78.578125 L 277.957031 72.582031 L 298.84375 70.644531 " class="aqm14" onclick="plotObjRespond('click', 14, 'dig')" onmouseover="plotObjRespond('show', 14, 'dig')" onmouseout="plotObjRespond('hide', 14, 'dig')" fill="none" stroke-width="1" stroke-linecap="round" stroke-linejoin="round" stroke="rgb(12.156863%,47.058824%,70.588235%)" stroke-opacity="1" stroke-miterlimit="10"/><path d="M 89.957031 148.589844 L 110.84375 137.953125 L 131.734375 126.21875 L 152.621094 119.652344 L 173.511719 110.28125 L 194.398438 102.8125 L 215.289062 93.945312 L 236.179688 84.828125 L 257.066406 75.195312 L 277.957031 68.804688 L 298.84375 65.167969 " class="aqm15" onclick="plotObjRespond('click', 15, 'dig')" onmouseover="plotObjRespond('show', 15, 'dig')" onmouseout="plotObjRespond('hide', 15, 'dig')" fill="none" stroke-width="1" stroke-linecap="round" stroke-linejoin="round" stroke="rgb(12.156863%,47.058824%,70.588235%)" stroke-opacity="1" stroke-miterlimit="10"/></g></g></svg>
