<?xml version="1.0" encoding="UTF-8"?>
<svg xmlns="http://www.w3.org/2000/svg" xmlns:xlink="http://www.w3.org/1999/xlink" width="343.77096pt" height="343.77096pt" viewBox="0 0 343.77096 343.77096" version="1.1" id="Fig:pca"><defs><g><symbol overflow="visible" id="pca-glyph0-0"><path style="stroke:none;" d=""/></symbol><symbol overflow="visible" id="pca-glyph0-1"><path style="stroke:none;" d="M 2.296875 -3.859375 L 5.15625 -3.859375 C 5.875 -3.859375 6.4375 -4.078125 6.921875 -4.515625 C 7.46875 -5.015625 7.71875 -5.59375 7.71875 -6.4375 C 7.71875 -8.15625 6.703125 -9.109375 4.90625 -9.109375 L 1.140625 -9.109375 L 1.140625 0 L 2.296875 0 L 2.296875 -3.859375 Z M 2.296875 -4.890625 L 2.296875 -8.09375 L 4.71875 -8.09375 C 5.84375 -8.09375 6.5 -7.484375 6.5 -6.484375 C 6.5 -5.484375 5.84375 -4.890625 4.71875 -4.890625 L 2.296875 -4.890625 Z M 2.296875 -4.890625 "/></symbol><symbol overflow="visible" id="pca-glyph0-2"><path style="stroke:none;" d="M 8.28125 -6.28125 C 7.90625 -8.28125 6.765625 -9.265625 4.765625 -9.265625 C 3.53125 -9.265625 2.546875 -8.875 1.875 -8.125 C 1.046875 -7.21875 0.59375 -5.921875 0.59375 -4.453125 C 0.59375 -2.953125 1.0625 -1.65625 1.921875 -0.78125 C 2.625 -0.046875 3.53125 0.28125 4.71875 0.28125 C 6.9375 0.28125 8.1875 -0.90625 8.46875 -3.328125 L 7.265625 -3.328125 C 7.15625 -2.703125 7.03125 -2.28125 6.84375 -1.90625 C 6.46875 -1.15625 5.703125 -0.734375 4.71875 -0.734375 C 2.90625 -0.734375 1.765625 -2.1875 1.765625 -4.46875 C 1.765625 -6.796875 2.859375 -8.234375 4.625 -8.234375 C 5.359375 -8.234375 6.046875 -8.015625 6.421875 -7.65625 C 6.765625 -7.34375 6.953125 -6.96875 7.09375 -6.28125 L 8.28125 -6.28125 Z M 8.28125 -6.28125 "/></symbol><symbol overflow="visible" id="pca-glyph0-3"><path style="stroke:none;" d="M 3.234375 -6.3125 L 3.234375 0 L 4.34375 0 L 4.34375 -8.859375 L 3.609375 -8.859375 C 3.21875 -7.5 2.96875 -7.3125 1.28125 -7.09375 L 1.28125 -6.3125 L 3.234375 -6.3125 Z M 3.234375 -6.3125 "/></symbol><symbol overflow="visible" id="pca-glyph1-0"><path style="stroke:none;" d=""/></symbol><symbol overflow="visible" id="pca-glyph1-1"><path style="stroke:none;" d="M -3.859375 -2.296875 L -3.859375 -5.15625 C -3.859375 -5.875 -4.078125 -6.4375 -4.515625 -6.921875 C -5.015625 -7.46875 -5.59375 -7.71875 -6.4375 -7.71875 C -8.15625 -7.71875 -9.109375 -6.703125 -9.109375 -4.90625 L -9.109375 -1.140625 L 0 -1.140625 L 0 -2.296875 L -3.859375 -2.296875 Z M -4.890625 -2.296875 L -8.09375 -2.296875 L -8.09375 -4.71875 C -8.09375 -5.84375 -7.484375 -6.5 -6.484375 -6.5 C -5.484375 -6.5 -4.890625 -5.84375 -4.890625 -4.71875 L -4.890625 -2.296875 Z M -4.890625 -2.296875 "/></symbol><symbol overflow="visible" id="pca-glyph1-2"><path style="stroke:none;" d="M -6.28125 -8.28125 C -8.28125 -7.90625 -9.265625 -6.765625 -9.265625 -4.765625 C -9.265625 -3.53125 -8.875 -2.546875 -8.125 -1.875 C -7.21875 -1.046875 -5.921875 -0.59375 -4.453125 -0.59375 C -2.953125 -0.59375 -1.65625 -1.0625 -0.78125 -1.921875 C -0.046875 -2.625 0.28125 -3.53125 0.28125 -4.71875 C 0.28125 -6.9375 -0.90625 -8.1875 -3.328125 -8.46875 L -3.328125 -7.265625 C -2.703125 -7.15625 -2.28125 -7.03125 -1.90625 -6.84375 C -1.15625 -6.46875 -0.734375 -5.703125 -0.734375 -4.71875 C -0.734375 -2.90625 -2.1875 -1.765625 -4.46875 -1.765625 C -6.796875 -1.765625 -8.234375 -2.859375 -8.234375 -4.625 C -8.234375 -5.359375 -8.015625 -6.046875 -7.65625 -6.421875 C -7.34375 -6.765625 -6.96875 -6.953125 -6.28125 -7.09375 L -6.28125 -8.28125 Z M -6.28125 -8.28125 "/></symbol><symbol overflow="visible" id="pca-glyph1-3"><path style="stroke:none;" d="M -1.09375 -6.328125 L -1.09375 -1.65625 C -1.8125 -1.78125 -2.28125 -2.171875 -2.90625 -3.265625 L -3.59375 -4.515625 C -4.265625 -5.75 -5.171875 -6.390625 -6.265625 -6.390625 C -7 -6.390625 -7.6875 -6.09375 -8.15625 -5.5625 C -8.640625 -5.03125 -8.859375 -4.390625 -8.859375 -3.546875 C -8.859375 -2.421875 -8.46875 -1.59375 -7.71875 -1.09375 C -7.234375 -0.78125 -6.6875 -0.65625 -5.78125 -0.625 L -5.78125 -1.71875 C -6.390625 -1.765625 -6.75 -1.84375 -7.03125 -1.984375 C -7.578125 -2.28125 -7.90625 -2.84375 -7.90625 -3.515625 C -7.90625 -4.515625 -7.1875 -5.265625 -6.234375 -5.265625 C -5.53125 -5.265625 -4.9375 -4.84375 -4.484375 -4.0625 L -3.84375 -2.90625 C -2.78125 -1.0625 -1.953125 -0.53125 0 -0.421875 L 0 -6.328125 L -1.09375 -6.328125 Z M -1.09375 -6.328125 "/></symbol><symbol overflow="visible" id="pca-glyph2-0"><path style="stroke:none;" d=""/></symbol><symbol overflow="visible" id="pca-glyph2-1"><path style="stroke:none;" d="M 2.859375 -3.15625 L 0.46875 -3.15625 L 0.46875 -2.421875 L 2.859375 -2.421875 L 2.859375 -3.15625 Z M 2.859375 -3.15625 "/></symbol><symbol overflow="visible" id="pca-glyph2-2"><path style="stroke:none;" d="M 2.609375 -5.09375 L 2.609375 0 L 3.5 0 L 3.5 -7.15625 L 2.921875 -7.15625 C 2.609375 -6.0625 2.40625 -5.90625 1.03125 -5.734375 L 1.03125 -5.09375 L 2.609375 -5.09375 Z M 2.609375 -5.09375 "/></symbol><symbol overflow="visible" id="pca-glyph2-3"><path style="stroke:none;" d="M 5.171875 -2.359375 C 5.171875 -3.171875 5.125 -3.65625 4.96875 -4.046875 C 4.625 -4.921875 3.8125 -5.4375 2.828125 -5.4375 C 1.359375 -5.4375 0.40625 -4.3125 0.40625 -2.578125 C 0.40625 -0.84375 1.328125 0.234375 2.8125 0.234375 C 4.015625 0.234375 4.859375 -0.453125 5.0625 -1.609375 L 4.21875 -1.609375 C 3.984375 -0.90625 3.515625 -0.546875 2.84375 -0.546875 C 2.296875 -0.546875 1.84375 -0.78125 1.5625 -1.234375 C 1.359375 -1.53125 1.296875 -1.84375 1.28125 -2.359375 L 5.171875 -2.359375 Z M 1.296875 -3.046875 C 1.375 -4.03125 1.96875 -4.65625 2.8125 -4.65625 C 3.640625 -4.65625 4.28125 -3.984375 4.28125 -3.109375 C 4.28125 -3.09375 4.28125 -3.0625 4.265625 -3.046875 L 1.296875 -3.046875 Z M 1.296875 -3.046875 "/></symbol><symbol overflow="visible" id="pca-glyph2-4"><path style="stroke:none;" d="M 5.390625 -2.6875 L 3.296875 -2.6875 L 3.296875 -4.78125 L 2.59375 -4.78125 L 2.59375 -2.6875 L 0.5 -2.6875 L 0.5 -1.984375 L 2.59375 -1.984375 L 2.59375 0.09375 L 3.296875 0.09375 L 3.296875 -1.984375 L 5.390625 -1.984375 L 5.390625 -2.6875 Z M 5.390625 -2.6875 "/></symbol><symbol overflow="visible" id="pca-glyph2-5"><path style="stroke:none;" d="M 2.78125 -7.15625 C 2.109375 -7.15625 1.5 -6.859375 1.125 -6.375 C 0.671875 -5.75 0.4375 -4.78125 0.4375 -3.46875 C 0.4375 -1.046875 1.234375 0.234375 2.78125 0.234375 C 4.296875 0.234375 5.125 -1.046875 5.125 -3.40625 C 5.125 -4.796875 4.890625 -5.71875 4.421875 -6.375 C 4.046875 -6.875 3.453125 -7.15625 2.78125 -7.15625 Z M 2.78125 -6.375 C 3.734375 -6.375 4.203125 -5.40625 4.203125 -3.484375 C 4.203125 -1.453125 3.75 -0.5 2.75 -0.5 C 1.8125 -0.5 1.34375 -1.5 1.34375 -3.453125 C 1.34375 -5.40625 1.8125 -6.375 2.78125 -6.375 Z M 2.78125 -6.375 "/></symbol><symbol overflow="visible" id="pca-glyph2-6"><path style="stroke:none;" d="M 4.796875 -7.15625 L 1.109375 -7.15625 L 0.578125 -3.265625 L 1.390625 -3.265625 C 1.8125 -3.75 2.15625 -3.921875 2.703125 -3.921875 C 3.65625 -3.921875 4.265625 -3.265625 4.265625 -2.203125 C 4.265625 -1.1875 3.671875 -0.5625 2.703125 -0.5625 C 1.921875 -0.5625 1.453125 -0.953125 1.234375 -1.75 L 0.359375 -1.75 C 0.46875 -1.171875 0.578125 -0.890625 0.78125 -0.625 C 1.1875 -0.078125 1.921875 0.234375 2.71875 0.234375 C 4.171875 0.234375 5.171875 -0.8125 5.171875 -2.328125 C 5.171875 -3.75 4.234375 -4.71875 2.859375 -4.71875 C 2.359375 -4.71875 1.953125 -4.578125 1.546875 -4.28125 L 1.828125 -6.28125 L 4.796875 -6.28125 L 4.796875 -7.15625 Z M 4.796875 -7.15625 "/></symbol><symbol overflow="visible" id="pca-glyph2-7"><path style="stroke:none;" d="M 5.109375 -0.875 L 1.34375 -0.875 C 1.4375 -1.46875 1.75 -1.84375 2.640625 -2.359375 L 3.640625 -2.890625 C 4.640625 -3.4375 5.15625 -4.171875 5.15625 -5.0625 C 5.15625 -5.65625 4.921875 -6.203125 4.484375 -6.59375 C 4.0625 -6.96875 3.546875 -7.15625 2.859375 -7.15625 C 1.953125 -7.15625 1.28125 -6.828125 0.890625 -6.234375 C 0.640625 -5.84375 0.53125 -5.40625 0.5 -4.671875 L 1.390625 -4.671875 C 1.421875 -5.15625 1.484375 -5.453125 1.609375 -5.6875 C 1.84375 -6.109375 2.296875 -6.375 2.84375 -6.375 C 3.640625 -6.375 4.25 -5.796875 4.25 -5.03125 C 4.25 -4.46875 3.921875 -3.984375 3.28125 -3.625 L 2.359375 -3.09375 C 0.859375 -2.25 0.421875 -1.578125 0.34375 0 L 5.109375 0 L 5.109375 -0.875 Z M 5.109375 -0.875 "/></symbol></g><clipPath id="pca-clip1"><path d="M 0 0 L 344.769531 0 L 344.769531 344.769531 L 0 344.769531 Z M 0 0 "/></clipPath><clipPath id="pca-clip2"><path d="M 0 0 L 344.769531 0 L 344.769531 344.769531 L 0 344.769531 Z M 0 0 "/></clipPath><clipPath id="pca-clip3"><path d="M 0 0 L 344.769531 0 L 344.769531 344.769531 L 0 344.769531 Z M 0 0 "/></clipPath><clipPath id="pca-clip4"><path d="M 0 0 L 344.769531 0 L 344.769531 344.769531 L 0 344.769531 Z M 0 0 "/></clipPath><clipPath id="pca-clip5"><path d="M 0 0 L 344.769531 0 L 344.769531 344.769531 L 0 344.769531 Z M 0 0 "/></clipPath><clipPath id="pca-clip6"><path d="M 69.820312 101.238281 L 315.761719 101.238281 L 315.761719 227.0625 L 69.820312 227.0625 Z M 69.820312 101.238281 "/></clipPath><clipPath id="pca-clip7"><path d="M 0 0 L 344.769531 0 L 344.769531 344.769531 L 0 344.769531 Z M 0 0 "/></clipPath></defs><g id="surface0"><g clip-path="url(#pca-clip1)" clip-rule="nonzero"><g style="fill:rgb(0%,0%,0%);fill-opacity:1;"><use xlink:href="#pca-glyph0-1" x="180.136719" y="265.539062"/><use xlink:href="#pca-glyph0-2" x="188.474243" y="265.539062"/><use xlink:href="#pca-glyph0-3" x="197.499283" y="265.539062"/></g></g><g clip-path="url(#pca-clip2)" clip-rule="nonzero"><g style="fill:rgb(0%,0%,0%);fill-opacity:1;"><use xlink:href="#pca-glyph1-1" x="15.109375" y="175.808594"/><use xlink:href="#pca-glyph1-2" x="15.109375" y="167.471069"/><use xlink:href="#pca-glyph1-3" x="15.109375" y="158.44603"/></g></g><g clip-path="url(#pca-clip3)" clip-rule="nonzero" type="plot-region" class="plot-region"><path style="fill:none;stroke-width:1;stroke-linecap:round;stroke-linejoin:round;stroke:rgb(0%,0%,0%);stroke-opacity:1;stroke-miterlimit:10;" d="M 132.320312 101.238281 L 132.320312 95.570312 " type="plot-point" class="plot-point"/><path style="fill:none;stroke-width:1;stroke-linecap:round;stroke-linejoin:round;stroke:rgb(0%,0%,0%);stroke-opacity:1;stroke-miterlimit:10;" d="M 195.195312 101.238281 L 195.195312 95.570312 " type="plot-point" class="plot-point"/><path style="fill:none;stroke-width:1;stroke-linecap:round;stroke-linejoin:round;stroke:rgb(0%,0%,0%);stroke-opacity:1;stroke-miterlimit:10;" d="M 258.074219 101.238281 L 258.074219 95.570312 " type="plot-point" class="plot-point"/></g><g clip-path="url(#pca-clip4)" clip-rule="nonzero"><path style="fill:none;stroke-width:1;stroke-linecap:round;stroke-linejoin:round;stroke:rgb(0%,0%,0%);stroke-opacity:1;stroke-miterlimit:10;" d="M 69.820312 205.765625 L 64.152344 205.765625 "/><path style="fill:none;stroke-width:1;stroke-linecap:round;stroke-linejoin:round;stroke:rgb(0%,0%,0%);stroke-opacity:1;stroke-miterlimit:10;" d="M 69.820312 174.328125 L 64.152344 174.328125 "/><path style="fill:none;stroke-width:1;stroke-linecap:round;stroke-linejoin:round;stroke:rgb(0%,0%,0%);stroke-opacity:1;stroke-miterlimit:10;" d="M 69.820312 142.890625 L 64.152344 142.890625 "/><path style="fill:none;stroke-width:1;stroke-linecap:round;stroke-linejoin:round;stroke:rgb(0%,0%,0%);stroke-opacity:1;stroke-miterlimit:10;" d="M 69.820312 111.453125 L 64.152344 111.453125 "/><g style="fill:rgb(0%,0%,0%);fill-opacity:1;"><use xlink:href="#pca-glyph2-1" x="26.78125" y="209.445312"/><use xlink:href="#pca-glyph2-2" x="30.142456" y="209.445312"/><use xlink:href="#pca-glyph2-3" x="35.754547" y="209.445312"/><use xlink:href="#pca-glyph2-4" x="41.366638" y="209.445312"/><use xlink:href="#pca-glyph2-5" x="47.261353" y="209.445312"/><use xlink:href="#pca-glyph2-6" x="52.873444" y="209.445312"/></g><g style="fill:rgb(0%,0%,0%);fill-opacity:1;"><use xlink:href="#pca-glyph2-5" x="30.140625" y="178.007812"/><use xlink:href="#pca-glyph2-3" x="35.752716" y="178.007812"/><use xlink:href="#pca-glyph2-4" x="41.364807" y="178.007812"/><use xlink:href="#pca-glyph2-5" x="47.259521" y="178.007812"/><use xlink:href="#pca-glyph2-5" x="52.871613" y="178.007812"/></g><g style="fill:rgb(0%,0%,0%);fill-opacity:1;"><use xlink:href="#pca-glyph2-2" x="30.140625" y="146.570312"/><use xlink:href="#pca-glyph2-3" x="35.752716" y="146.570312"/><use xlink:href="#pca-glyph2-4" x="41.364807" y="146.570312"/><use xlink:href="#pca-glyph2-5" x="47.259521" y="146.570312"/><use xlink:href="#pca-glyph2-6" x="52.871613" y="146.570312"/></g><g style="fill:rgb(0%,0%,0%);fill-opacity:1;"><use xlink:href="#pca-glyph2-7" x="30.140625" y="115.132812"/><use xlink:href="#pca-glyph2-3" x="35.752716" y="115.132812"/><use xlink:href="#pca-glyph2-4" x="41.364807" y="115.132812"/><use xlink:href="#pca-glyph2-5" x="47.259521" y="115.132812"/><use xlink:href="#pca-glyph2-6" x="52.871613" y="115.132812"/></g></g><g clip-path="url(#pca-clip5)" clip-rule="nonzero"><path style="fill:none;stroke-width:1;stroke-linecap:round;stroke-linejoin:round;stroke:rgb(0%,0%,0%);stroke-opacity:1;stroke-miterlimit:10;" d="M 132.320312 226.0625 L 132.320312 231.734375 "/><path style="fill:none;stroke-width:1;stroke-linecap:round;stroke-linejoin:round;stroke:rgb(0%,0%,0%);stroke-opacity:1;stroke-miterlimit:10;" d="M 195.195312 226.0625 L 195.195312 231.734375 "/><path style="fill:none;stroke-width:1;stroke-linecap:round;stroke-linejoin:round;stroke:rgb(0%,0%,0%);stroke-opacity:1;stroke-miterlimit:10;" d="M 258.074219 226.0625 L 258.074219 231.734375 "/><g style="fill:rgb(0%,0%,0%);fill-opacity:1;"><use xlink:href="#pca-glyph2-1" x="116.46875" y="244.761719"/><use xlink:href="#pca-glyph2-7" x="119.829956" y="244.761719"/><use xlink:href="#pca-glyph2-3" x="125.442047" y="244.761719"/><use xlink:href="#pca-glyph2-4" x="131.054138" y="244.761719"/><use xlink:href="#pca-glyph2-5" x="136.948853" y="244.761719"/><use xlink:href="#pca-glyph2-6" x="142.560944" y="244.761719"/></g><g style="fill:rgb(0%,0%,0%);fill-opacity:1;"><use xlink:href="#pca-glyph2-5" x="181.023438" y="244.761719"/><use xlink:href="#pca-glyph2-3" x="186.635529" y="244.761719"/><use xlink:href="#pca-glyph2-4" x="192.24762" y="244.761719"/><use xlink:href="#pca-glyph2-5" x="198.142334" y="244.761719"/><use xlink:href="#pca-glyph2-5" x="203.754425" y="244.761719"/></g><g style="fill:rgb(0%,0%,0%);fill-opacity:1;"><use xlink:href="#pca-glyph2-7" x="243.902344" y="244.761719"/><use xlink:href="#pca-glyph2-3" x="249.514435" y="244.761719"/><use xlink:href="#pca-glyph2-4" x="255.126526" y="244.761719"/><use xlink:href="#pca-glyph2-5" x="261.02124" y="244.761719"/><use xlink:href="#pca-glyph2-6" x="266.633331" y="244.761719"/></g><path style="fill:none;stroke-width:1;stroke-linecap:round;stroke-linejoin:round;stroke:rgb(0%,0%,0%);stroke-opacity:1;stroke-miterlimit:10;" d="M 314.761719 205.765625 L 320.433594 205.765625 "/><path style="fill:none;stroke-width:1;stroke-linecap:round;stroke-linejoin:round;stroke:rgb(0%,0%,0%);stroke-opacity:1;stroke-miterlimit:10;" d="M 314.761719 174.328125 L 320.433594 174.328125 "/><path style="fill:none;stroke-width:1;stroke-linecap:round;stroke-linejoin:round;stroke:rgb(0%,0%,0%);stroke-opacity:1;stroke-miterlimit:10;" d="M 314.761719 142.890625 L 320.433594 142.890625 "/><path style="fill:none;stroke-width:1;stroke-linecap:round;stroke-linejoin:round;stroke:rgb(0%,0%,0%);stroke-opacity:1;stroke-miterlimit:10;" d="M 314.761719 111.453125 L 320.433594 111.453125 "/></g><g clip-path="url(#pca-clip6)" clip-rule="nonzero" type="plot-region" class="plot-region"><path style="fill-rule:nonzero;fill:rgb(12.156863%,47.058824%,70.588235%);fill-opacity:1;stroke-width:1;stroke-linecap:round;stroke-linejoin:round;stroke:rgb(12.156863%,47.058824%,70.588235%);stroke-opacity:1;stroke-miterlimit:10;" d="M 135.988281 133.269531 C 135.988281 137.9375 128.988281 137.9375 128.988281 133.269531 C 128.988281 128.605469 135.988281 128.605469 135.988281 133.269531 " type="plot-point" class="plot-point"/><path style="fill-rule:nonzero;fill:rgb(12.156863%,47.058824%,70.588235%);fill-opacity:1;stroke-width:1;stroke-linecap:round;stroke-linejoin:round;stroke:rgb(12.156863%,47.058824%,70.588235%);stroke-opacity:1;stroke-miterlimit:10;" d="M 155.914062 171.324219 C 155.914062 175.992188 148.914062 175.992188 148.914062 171.324219 C 148.914062 166.65625 155.914062 166.65625 155.914062 171.324219 " type="plot-point" class="plot-point"/><path style="fill-rule:nonzero;fill:rgb(12.156863%,47.058824%,70.588235%);fill-opacity:1;stroke-width:1;stroke-linecap:round;stroke-linejoin:round;stroke:rgb(12.156863%,47.058824%,70.588235%);stroke-opacity:1;stroke-miterlimit:10;" d="M 129.820312 108.902344 C 129.820312 113.570312 122.820312 113.570312 122.820312 108.902344 C 122.820312 104.238281 129.820312 104.238281 129.820312 108.902344 " type="plot-point" class="plot-point"/><path style="fill-rule:nonzero;fill:rgb(12.156863%,47.058824%,70.588235%);fill-opacity:1;stroke-width:1;stroke-linecap:round;stroke-linejoin:round;stroke:rgb(12.156863%,47.058824%,70.588235%);stroke-opacity:1;stroke-miterlimit:10;" d="M 276.527344 145 C 276.527344 149.664062 269.527344 149.664062 269.527344 145 C 269.527344 140.332031 276.527344 140.332031 276.527344 145 " type="plot-point" class="plot-point"/><path style="fill-rule:nonzero;fill:rgb(12.156863%,47.058824%,70.588235%);fill-opacity:1;stroke-width:1;stroke-linecap:round;stroke-linejoin:round;stroke:rgb(12.156863%,47.058824%,70.588235%);stroke-opacity:1;stroke-miterlimit:10;" d="M 259.0625 125.890625 C 259.0625 130.554688 252.0625 130.554688 252.0625 125.890625 C 252.0625 121.222656 259.0625 121.222656 259.0625 125.890625 " type="plot-point" class="plot-point"/><path style="fill-rule:nonzero;fill:rgb(12.156863%,47.058824%,70.588235%);fill-opacity:1;stroke-width:1;stroke-linecap:round;stroke-linejoin:round;stroke:rgb(12.156863%,47.058824%,70.588235%);stroke-opacity:1;stroke-miterlimit:10;" d="M 88.363281 210.007812 C 88.363281 214.675781 81.363281 214.675781 81.363281 210.007812 C 81.363281 205.339844 88.363281 205.339844 88.363281 210.007812 " type="plot-point" class="plot-point"/><path style="fill-rule:nonzero;fill:rgb(12.156863%,47.058824%,70.588235%);fill-opacity:1;stroke-width:1;stroke-linecap:round;stroke-linejoin:round;stroke:rgb(12.156863%,47.058824%,70.588235%);stroke-opacity:1;stroke-miterlimit:10;" d="M 196.792969 209.851562 C 196.792969 214.519531 189.792969 214.519531 189.792969 209.851562 C 189.792969 205.1875 196.792969 205.1875 196.792969 209.851562 " type="plot-point" class="plot-point"/><path style="fill-rule:nonzero;fill:rgb(12.156863%,47.058824%,70.588235%);fill-opacity:1;stroke-width:1;stroke-linecap:round;stroke-linejoin:round;stroke:rgb(12.156863%,47.058824%,70.588235%);stroke-opacity:1;stroke-miterlimit:10;" d="M 164.738281 195.730469 C 164.738281 200.394531 157.738281 200.394531 157.738281 195.730469 C 157.738281 191.0625 164.738281 191.0625 164.738281 195.730469 " type="plot-point" class="plot-point"/><path style="fill-rule:nonzero;fill:rgb(12.156863%,47.058824%,70.588235%);fill-opacity:1;stroke-width:1;stroke-linecap:round;stroke-linejoin:round;stroke:rgb(12.156863%,47.058824%,70.588235%);stroke-opacity:1;stroke-miterlimit:10;" d="M 215.246094 201.632812 C 215.246094 206.300781 208.246094 206.300781 208.246094 201.632812 C 208.246094 196.96875 215.246094 196.96875 215.246094 201.632812 " type="plot-point" class="plot-point"/><path style="fill-rule:nonzero;fill:rgb(12.156863%,47.058824%,70.588235%);fill-opacity:1;stroke-width:1;stroke-linecap:round;stroke-linejoin:round;stroke:rgb(12.156863%,47.058824%,70.588235%);stroke-opacity:1;stroke-miterlimit:10;" d="M 184.65625 218.398438 C 184.65625 223.066406 177.65625 223.066406 177.65625 218.398438 C 177.65625 213.730469 184.65625 213.730469 184.65625 218.398438 " type="plot-point" class="plot-point"/><path style="fill-rule:nonzero;fill:rgb(12.156863%,47.058824%,70.588235%);fill-opacity:1;stroke-width:1;stroke-linecap:round;stroke-linejoin:round;stroke:rgb(12.156863%,47.058824%,70.588235%);stroke-opacity:1;stroke-miterlimit:10;" d="M 261.675781 172.140625 C 261.675781 176.808594 254.675781 176.808594 254.675781 172.140625 C 254.675781 167.472656 261.675781 167.472656 261.675781 172.140625 " type="plot-point" class="plot-point"/><path style="fill-rule:nonzero;fill:rgb(12.156863%,47.058824%,70.588235%);fill-opacity:1;stroke-width:1;stroke-linecap:round;stroke-linejoin:round;stroke:rgb(12.156863%,47.058824%,70.588235%);stroke-opacity:1;stroke-miterlimit:10;" d="M 303.222656 193.925781 C 303.222656 198.59375 296.222656 198.59375 296.222656 193.925781 C 296.222656 189.257812 303.222656 189.257812 303.222656 193.925781 " type="plot-point" class="plot-point"/><path style="fill-rule:nonzero;fill:rgb(12.156863%,47.058824%,70.588235%);fill-opacity:1;stroke-width:1;stroke-linecap:round;stroke-linejoin:round;stroke:rgb(12.156863%,47.058824%,70.588235%);stroke-opacity:1;stroke-miterlimit:10;" d="M 152.714844 190.1875 C 152.714844 194.855469 145.714844 194.855469 145.714844 190.1875 C 145.714844 185.523438 152.714844 185.523438 152.714844 190.1875 " type="plot-point" class="plot-point"/><path style="fill-rule:nonzero;fill:rgb(12.156863%,47.058824%,70.588235%);fill-opacity:1;stroke-width:1;stroke-linecap:round;stroke-linejoin:round;stroke:rgb(12.156863%,47.058824%,70.588235%);stroke-opacity:1;stroke-miterlimit:10;" d="M 291.796875 185.015625 C 291.796875 189.683594 284.796875 189.683594 284.796875 185.015625 C 284.796875 180.347656 291.796875 180.347656 291.796875 185.015625 " type="plot-point" class="plot-point"/><path style="fill-rule:nonzero;fill:rgb(12.156863%,47.058824%,70.588235%);fill-opacity:1;stroke-width:1;stroke-linecap:round;stroke-linejoin:round;stroke:rgb(12.156863%,47.058824%,70.588235%);stroke-opacity:1;stroke-miterlimit:10;" d="M 163.929688 153.648438 C 163.929688 158.316406 156.929688 158.316406 156.929688 153.648438 C 156.929688 148.984375 163.929688 148.984375 163.929688 153.648438 " type="plot-point" class="plot-point"/></g><g clip-path="url(#pca-clip7)" clip-rule="nonzero" type="plot-region" class="plot-region"><path style="fill:none;stroke-width:1;stroke-linecap:round;stroke-linejoin:round;stroke:rgb(0%,0%,0%);stroke-opacity:1;stroke-miterlimit:10;" d="M 69.820312 101.238281 L 314.761719 101.238281 L 314.761719 226.0625 L 69.820312 226.0625 Z M 69.820312 101.238281 " type="plot-point" class="plot-point"/></g></g></svg>
